<svg id="Layer_1" data-name="Layer 1" xmlns="http://www.w3.org/2000/svg" viewBox="0 0 200 233.79"><defs><style>.cls-1{fill:#fff;}</style></defs><path class="cls-1" d="M-.56-54.21V267.67h200V-54.21ZM171.6,97.43c-4.57,6.95-12.07,11.49-19.82,14.5-10.28,4-22.67,6.7-27.64,16.54-2.14,4.22-2.46,9.09-3,13.79-1.93,16.44-8,33.62-21.71,43C90,191.69,78,193.57,66.53,192.68c-15.3-1.19-31-2.08-39.41-17.23a32.43,32.43,0,0,1,3.24-35.36c5.91-7.21,14.61-11.39,22.4-16.51S68.1,111.39,69.3,102.15c1.39-10.79-6.24-20.51-13.86-28.28S39.25,57.88,38,47.07c-1.58-13.36,9.95-25.47,23.16-28.3a27.87,27.87,0,0,1,5.22-.62c15.21-.33,29.13,9.57,37.89,22,4.37,6.21,8.14,16.29,14.68,20.54,6.35,4.12,17.07,3.61,24.29,3.57,10.7-.08,23.11.9,29.23,9.68C177.19,80.76,176.17,90.48,171.6,97.43Z"/></svg>