<svg width="18" height="18" viewBox="0 0 18 18" fill="none" xmlns="http://www.w3.org/2000/svg">
<path d="M14.61 9.26163C13.4325 6.20163 9.24 6.03663 10.2525 1.58913C10.3275 1.25913 9.975 1.00413 9.69 1.17663C6.9675 2.78163 5.01 5.99913 6.6525 10.2141C6.7875 10.5591 6.3825 10.8816 6.09 10.6566C4.7325 9.62913 4.59 8.15163 4.71 7.09413C4.755 6.70413 4.245 6.51663 4.0275 6.83913C3.5175 7.61913 3 8.87913 3 10.7766C3.285 14.9766 6.8325 16.2666 8.1075 16.4316C9.93 16.6641 11.9025 16.3266 13.32 15.0291C14.88 13.5816 15.45 11.2716 14.61 9.26163ZM7.65 13.0341C8.73 12.7716 9.285 11.9916 9.435 11.3016C9.6825 10.2291 8.715 9.17913 9.3675 7.48413C9.615 8.88663 11.82 9.76413 11.82 11.2941C11.88 13.1916 9.825 14.8191 7.65 13.0341Z" fill="#F9AEAE"/>
</svg>
