<svg xmlns="http://www.w3.org/2000/svg" fill="none" viewBox="0 0 511 106"><path fill="#FF1C31" d="M85.482 39.98c0-12.46 2.38-25.2 2.38-26.46 0-1.26-1.12-1.26-1.26-1.26-4.9 0-10.78-3.08-10.78-9.8 0-1.26-1.12-1.26-1.26-1.26-2.94 0-14.14 1.54-31.5 1.54-17.22 0-28.42-1.54-31.36-1.54-.14 0-1.26 0-1.26 1.26 0 4.48-4.2 7.56-8.82 7.56-.14 0-1.26 0-1.26 1.26S2.882 25 2.882 37.46c0 .7.56 1.26 1.26 1.26h13.86c.7 0 1.26.56 1.26 1.26v25.76c0 .7-.56 1.26-1.26 1.26H4.142c-.7 0-1.26.56-1.26 1.26 0 12.46-2.52 24.92-2.52 26.18 0 1.26 1.12 1.26 1.26 1.26 4.62 0 8.82 3.08 8.82 7.56 0 1.26 1.12 1.26 1.26 1.26 2.94 0 14.14-1.54 31.36-1.54 17.36 0 28.56 1.54 31.5 1.54.14 0 1.26 0 1.26-1.26 0-6.72 5.88-9.8 10.78-9.8.14 0 1.26 0 1.26-1.26s-2.38-14-2.38-26.46V39.98zM75.402 55.8c0 6.16-5.04 11.2-11.2 11.2h-33.6c-.7 0-1.26-.56-1.26-1.26V39.98c0-.7.56-1.26 1.26-1.26h33.6c6.16 0 11.2 5.04 11.2 11.2v5.88zM179.421 60.84c0-.7-.56-1.26-1.26-1.26h-7.28c-.7 0-1.26.56-1.26 1.26 0 3.5-2.8 5.88-6.3 5.88h-39.34c-.7 0-1.26-.56-1.26-1.26V57.9c0-.7.56-1.26 1.26-1.26h11.76c.7 0 1.26.56 1.26 1.26v1.26c0 .7.56 1.26 1.26 1.26h18.9c.7 0 1.26-.56 1.26-1.26v-12.6c0-.7-.56-1.26-1.26-1.26h-18.9c-.7 0-1.26.56-1.26 1.26v1.26c0 .7-.56 1.26-1.26 1.26h-11.76c-.7 0-1.26-.56-1.26-1.26v-7.56c0-.7.56-1.26 1.26-1.26h39.34c3.5 0 6.3 2.38 6.3 5.88 0 .7.56 1.26 1.26 1.26h7.28c.7 0 1.26-.56 1.26-1.26v-7.14c0-12.46 2.52-25.2 2.52-26.46 0-1.26-1.12-1.26-1.26-1.26-4.62 0-8.82-4.06-8.82-8.54 0-1.26-1.12-1.26-1.26-1.26-4.48 0-15.54 2.38-32.76 2.38S109.561.22 105.081.22c-.14 0-1.26 0-1.26 1.26 0 4.48-4.2 8.54-8.82 8.54-.14 0-1.26 0-1.26 1.26s2.52 14 2.52 26.46c0 .7.56 1.26 1.26 1.26h13.86c.7 0 1.26.56 1.26 1.26v25.2c0 .7-.56 1.26-1.26 1.26h-13.86c-.7 0-1.26.56-1.26 1.26 0 12.46-2.52 25.2-2.52 26.46 0 1.26 1.12 1.26 1.26 1.26 4.62 0 8.82 3.92 8.82 8.4 0 1.26 1.12 1.26 1.26 1.26 4.48 0 15.54-2.38 32.76-2.38s28.28 2.38 32.76 2.38c.14 0 1.26 0 1.26-1.26 0-4.48 4.2-8.4 8.82-8.4.14 0 1.26 0 1.26-1.26s-2.52-14-2.52-26.46v-7.14zM269.697 60.14c0-1.26-1.12-1.26-1.26-1.26-4.9 0-10.92-2.66-10.92-9.38 0-1.26-1.12-1.26-1.26-1.26-2.8 0-8.54.42-22.26.42-13.58 0-22.12-.56-22.12-6.3 0-2.1 2.1-3.78 4.2-3.78h30.24c2.38 0 4.06 1.68 4.06 3.92 0 .7.56 1.26 1.26 1.26h7.28c.7 0 1.26-.56 1.26-1.26v-5.18c0-12.46 2.38-22.68 2.38-23.94 0-1.26-1.12-1.26-1.26-1.26-4.9 0-10.78-3.08-10.78-9.8 0-1.26-1.12-1.26-1.26-1.26-2.94 0-5.88 1.54-23.1 1.54-17.36 0-19.32-1.54-22.26-1.54-.14 0-1.26 0-1.26 1.26 0 6.72-5.88 9.8-10.78 9.8-.14 0-1.26 0-1.26 1.26 0 .98 2.1 7.28 2.1 15.4 0 8.12-2.1 17.08-2.1 18.06 0 1.26 1.12 1.26 1.26 1.26 4.9 0 12.04 2.8 12.04 9.52 0 1.26 1.12 1.26 1.26 1.26 2.66 0 6.86-1.26 18.2-1.26s25.06-1.26 25.06 5.88c0 2.1-1.68 3.64-3.78 3.64h-37.94c-3.5 0-6.3-2.38-6.3-5.88 0-.7-.56-1.26-1.26-1.26h-7.28c-.7 0-1.26.56-1.26 1.26v7.98h-.14c0 12.46-2.38 22.68-2.38 23.94 0 1.26 1.12 1.26 1.26 1.26 4.9 0 10.78 3.08 10.78 9.8 0 1.26 1.12 1.26 1.26 1.26 2.94 0 10.64-1.54 28-1.54 17.22 0 23.94 1.54 26.88 1.54.14 0 1.26 0 1.26-1.26 0-6.72 5.88-9.8 10.78-9.8.14 0 1.26 0 1.26-1.26 0-.98-2.1-6.3-2.1-16.38 0-10.08 2.24-15.54 2.24-16.66zM319.404 66.72h-13.86c-.7 0-1.26-.56-1.26-1.26v-25.2c0-.56.42-1.12.98-1.26h14.14c.7 0 1.26-.56 1.26-1.26 0-12.46 2.52-25.2 2.52-26.46 0-1.26-1.12-1.26-1.26-1.26-4.62 0-8.82-3.08-8.82-7.56 0-1.26-1.12-1.26-1.26-1.26-2.94 0-6.86 1.26-12.6 1.26-5.74 0-9.66-1.26-12.6-1.26-.14 0-1.26 0-1.26 1.26 0 4.48-4.2 7.56-8.82 7.56-.14 0-1.26 0-1.26 1.26s2.52 14 2.52 26.46c0 .7.56 1.26 1.26 1.26h14.14c.56.14.98.7.98 1.26v25.2c0 .7-.56 1.26-1.26 1.26h-13.86c-.7 0-1.26.56-1.26 1.26 0 12.46-2.52 25.2-2.52 26.46 0 1.26 1.12 1.26 1.26 1.26 4.62 0 8.82 3.08 8.82 7.56 0 1.26 1.12 1.26 1.26 1.26 2.94 0 6.86-1.26 12.6-1.26 5.74 0 9.66 1.26 12.6 1.26.14 0 1.26 0 1.26-1.26 0-4.48 4.2-7.56 8.82-7.56.14 0 1.26 0 1.26-1.26s-2.52-14-2.52-26.46c0-.7-.56-1.26-1.26-1.26zM400.994 67.98V51.32c0-.7-.56-1.26-1.26-1.26h-23.66c-.7 0-1.26.56-1.26 1.26v5.04c0 .7.56 1.26 1.26 1.26h13.86c.7 0 1.26.56 1.26 1.26v2.24c0 3.5-2.8 5.88-6.3 5.88h-32.2c-6.16 0-11.2-5.04-11.2-11.2v-5.88c0-6.16 5.04-11.2 11.2-11.2h32.2c3.5 0 6.3 2.38 6.3 5.88 0 .7.56 1.26 1.26 1.26h7.28c.7 0 1.26-.56 1.26-1.26v-6.86c0-12.46 2.52-25.2 2.52-26.46 0-1.26-1.12-1.26-1.26-1.26-4.62 0-8.82-3.08-8.82-7.56 0-1.26-1.12-1.26-1.26-1.26-2.94 0-7.7 1.54-24.92 1.54-17.22 0-21.98-1.54-24.92-1.54-.14 0-1.26 0-1.26 1.26 0 6.72-5.88 9.8-10.78 9.8-.14 0-1.26 0-1.26 1.26s2.38 14 2.38 26.46v25.76c0 12.46-2.38 25.2-2.38 26.46 0 1.26 1.12 1.26 1.26 1.26 4.9 0 10.78 3.08 10.78 9.8 0 1.26 1.12 1.26 1.26 1.26 2.94 0 7.56-1.54 24.92-1.54 17.22 0 21.98 1.54 24.92 1.54.14 0 1.26 0 1.26-1.26 0-4.48 4.2-7.56 8.82-7.56.14 0 1.26 0 1.26-1.26s-2.52-14-2.52-26.46zM508.965 10.02c-4.62 0-8.82-3.08-8.82-7.56 0-1.26-1.12-1.26-1.26-1.26-2.94 0-6.86 1.26-12.6 1.26-5.74 0-9.66-1.26-12.6-1.26-.14 0-1.26 0-1.26 1.26 0 4.48-4.2 7.56-8.82 7.56-.14 0-1.26 0-1.26 1.26s2.52 14 2.52 26.46c0 .7.56 1.26 1.26 1.26h13.86c.7 0 1.26.56 1.26 1.26v25.2c0 .7-.56 1.26-1.26 1.26h-7.84c-1.12 0-1.68-.56-1.68-.56l-17.92-25.2s-.56-.84-.56-1.4c0-.28.14-.56.84-.56h.7c.7 0 1.26-.56 1.26-1.26 0-12.46 2.52-25.2 2.52-26.46 0-1.26-1.12-1.26-1.26-1.26-4.62 0-8.82-3.08-8.82-7.56 0-1.26-1.12-1.26-1.26-1.26-2.94 0-6.86 1.26-12.6 1.26-5.74 0-9.66-1.26-12.6-1.26-.14 0-1.26 0-1.26 1.26 0 4.48-4.2 7.56-8.82 7.56-.14 0-1.26 0-1.26 1.26s2.52 14 2.52 26.46c0 .7.56 1.26 1.26 1.26h13.86c.7 0 1.26.56 1.26 1.26v25.2c0 .7-.56 1.26-1.26 1.26h-13.86c-.7 0-1.26.56-1.26 1.26 0 12.46-2.52 25.2-2.52 26.46 0 1.26 1.12 1.26 1.26 1.26 4.62 0 8.82 3.08 8.82 7.56 0 1.26 1.12 1.26 1.26 1.26 2.94 0 6.86-1.26 12.6-1.26 5.74 0 9.66 1.26 12.6 1.26.14 0 1.26 0 1.26-1.26 0-4.48 4.2-7.56 8.82-7.56.14 0 1.26 0 1.26-1.26s-2.52-14-2.52-26.46c0-.7-.56-1.26-1.26-1.26h-13.86c-.7 0-1.26-.56-1.26-1.26V41.1c0-.56.28-.84.56-.84.7 0 1.4 1.12 1.4 1.12l41.86 58.52c.84 1.26 2.38 2.1 4.06 2.1 2.8 0 5.04-2.24 5.04-5.04v-56.7c0-.7.56-1.26 1.26-1.26h13.86c.7 0 1.26-.56 1.26-1.26 0-12.46 2.52-25.2 2.52-26.46 0-1.26-1.12-1.26-1.26-1.26z"/></svg>