<svg xmlns="http://www.w3.org/2000/svg" fill="none" viewBox="0 0 496 105"><path fill="#FF1C31" d="M54.163 2.74h-1.54c-12.74 0-16.8 6.86-21.7 6.86-4.9 0-3.36-4.06-6.16-4.06-2.8 0-1.26 4.06-6.16 4.06s-8.12-6.86-16.52-6.86c-.28 0-1.26 0-1.26 1.26s2.52 21.28 2.52 33.74c0 .7.56 1.26 1.26 1.26h13.86c.7 0 1.26.56 1.26 1.26v25.2c0 .7-.56 1.26-1.26 1.26H4.603c-.7 0-1.26.56-1.26 1.26 0 12.46-2.52 32.48-2.52 33.74 0 1.26.98 1.26 1.26 1.26 8.4 0 11.62-6.86 16.52-6.86s3.36 4.06 6.16 4.06c2.8 0 1.26-4.06 6.16-4.06s8.96 6.86 21.7 6.86h1.54c18.48 0 33.04-14.56 33.04-31.22v-37.8c0-16.66-14.56-31.22-33.04-31.22zm22.96 55.16c0 4.9-4.06 8.82-8.82 8.82h-37.24c-.7 0-1.26-.56-1.26-1.26v-25.2c0-.7.56-1.26 1.26-1.26h37.24c4.9 0 8.82 3.92 8.82 8.82V57.9zM179.609 60.84c0-.7-.56-1.26-1.26-1.26h-7.28c-.7 0-1.26.56-1.26 1.26 0 3.5-2.8 5.88-6.3 5.88h-39.34c-.7 0-1.26-.56-1.26-1.26V57.9c0-.7.56-1.26 1.26-1.26h11.76c.7 0 1.26.56 1.26 1.26v1.26c0 .7.56 1.26 1.26 1.26h18.9c.7 0 1.26-.56 1.26-1.26v-12.6c0-.7-.56-1.26-1.26-1.26h-18.9c-.7 0-1.26.56-1.26 1.26v1.26c0 .7-.56 1.26-1.26 1.26h-11.76c-.7 0-1.26-.56-1.26-1.26v-7.56c0-.7.56-1.26 1.26-1.26h39.34c3.5 0 6.3 2.38 6.3 5.88 0 .7.56 1.26 1.26 1.26h7.28c.7 0 1.26-.56 1.26-1.26v-7.14c0-12.46 2.52-32.48 2.52-33.74 0-1.26-1.12-1.26-1.26-1.26-8.12 0-11.62 6.86-16.52 6.86s-3.5-4.06-6.16-4.06c-2.8 0-1.26 4.06-6.16 4.06-3.5 0-6.3-3.64-14-3.64-7.56 0-10.64 3.64-14 3.64-4.9 0-3.36-4.06-6.16-4.06-2.8 0-1.26 4.06-6.16 4.06s-8.12-6.86-16.52-6.86c-.28 0-1.26 0-1.26 1.26s2.52 21.28 2.52 33.74c0 .7.56 1.26 1.26 1.26h13.86c.7 0 1.26.56 1.26 1.26v25.2c0 .7-.56 1.26-1.26 1.26h-13.86c-.7 0-1.26.56-1.26 1.26 0 12.46-2.52 32.48-2.52 33.74 0 1.26.98 1.26 1.26 1.26 8.12 0 11.62-6.86 16.52-6.86s3.36 4.06 6.16 4.06c2.8 0 1.26-4.06 6.16-4.06 3.5 0 6.44 3.64 13.86 3.64 7.7 0 10.64-3.64 14.14-3.64 4.9 0 3.36 4.06 6.16 4.06 2.66 0 1.26-4.06 6.16-4.06s8.12 6.86 16.52 6.86c.14 0 1.26 0 1.26-1.26s-2.52-21.28-2.52-33.74v-7.14zM209.245 42.5c0-2.1 2.1-3.78 4.2-3.78h24.08c3.5 0 6.3 2.38 6.3 5.88 0 .7.56 1.26 1.26 1.26h7.28c.7 0 1.26-.56 1.26-1.26V32c0-11.2-3.64-18.48-9.8-22.4-4.76-3.08-2.8-8.82-5.6-8.82-2.66 0-1.26 3.64-6.16 3.64-3.36 0-4.34-2.24-10.08-2.24-5.88 0-6.86 2.24-10.08 2.24-4.9 0-3.36-3.64-6.16-3.64-2.66 0-.84 5.74-5.6 8.82-6.3 3.92-9.8 11.2-9.8 22.4v3.22c0 34.02 47.88 12.74 47.88 27.86 0 2.1-1.68 3.92-3.78 3.92h-29.26c-3.5 0-6.3-2.38-6.3-5.88 0-.7-.56-1.26-1.26-1.26h-7.28c-.7 0-1.26.56-1.26 1.26v12.32c0 11.2 3.64 18.34 9.8 22.4 4.76 3.08 2.8 8.82 5.6 8.82s1.26-3.64 6.16-3.64c3.36 0 6.72 2.66 12.46 2.66 5.88 0 9.24-2.66 12.46-2.66 4.9 0 3.5 3.64 6.16 3.64 2.8 0 .84-5.74 5.6-8.82 6.16-4.06 9.8-11.2 9.8-22.4V70.5c0-34.02-47.88-12.88-47.88-28zM307.013 66.72h-13.86c-.7 0-1.26-.56-1.26-1.26v-25.2c0-.7.56-1.26 1.26-1.26h13.86c.7 0 1.26-.56 1.26-1.26 0-12.46 2.52-32.48 2.52-33.74 0-1.26-1.12-1.26-1.26-1.26-8.12 0-11.62 6.86-16.52 6.86s-3.36-4.06-6.16-4.06c-2.8 0-1.26 4.06-6.16 4.06s-8.12-6.86-16.52-6.86c-.28 0-1.26 0-1.26 1.26s2.52 21.28 2.52 33.74c0 .7.56 1.26 1.26 1.26h13.86c.7 0 1.26.56 1.26 1.26v25.2c0 .7-.56 1.26-1.26 1.26h-13.86c-.7 0-1.26.56-1.26 1.26 0 12.46-2.52 32.48-2.52 33.74 0 1.26.98 1.26 1.26 1.26 8.12 0 11.62-6.86 16.52-6.86s3.36 4.06 6.16 4.06c2.8 0 1.26-4.06 6.16-4.06s8.12 6.86 16.52 6.86c.14 0 1.26 0 1.26-1.26s-2.52-21.28-2.52-33.74c0-.7-.56-1.26-1.26-1.26zM337.904 38.72h34.3c3.5 0 6.3 2.38 6.3 5.88 0 .7.56 1.26 1.26 1.26h7.28c.7 0 1.26-.56 1.26-1.26V32.28c0-11.2-3.64-18.34-9.8-22.4-4.76-3.08-2.8-8.82-5.6-8.82-2.66 0-1.26 3.78-6.16 3.78-3.36 0-8.12-2.66-13.86-2.66-5.88 0-10.64 2.66-13.86 2.66-4.9 0-3.36-3.78-6.16-3.78-2.8 0-.84 5.74-5.6 8.82-6.16 4.06-9.8 11.2-9.8 22.4v41.16c0 11.2 3.64 18.34 9.8 22.4 4.76 3.08 2.8 8.82 5.6 8.82s1.26-3.78 6.16-3.78c3.36 0 8.12 2.66 13.86 2.66 5.88 0 10.64-2.66 13.86-2.66 4.9 0 3.5 3.78 6.16 3.78 2.8 0 .84-5.74 5.6-8.82 6.16-4.06 9.8-11.2 9.8-22.4v-21.7c0-.7-.56-1.26-1.26-1.26h-23.94c-.7 0-1.26.56-1.26 1.26v5.04c0 .7.56 1.26 1.26 1.26h13.86c.7 0 1.26.56 1.26 1.26v1.82c0 3.5-2.8 5.88-6.3 5.88h-34.02c-6.16 0-11.2-5.04-11.2-11.2v-5.88c0-6.16 5.04-11.2 11.2-11.2zM494.523 2.74c-8.12 0-11.62 6.86-16.52 6.86s-3.36-4.06-6.16-4.06c-2.8 0-1.26 4.06-6.16 4.06s-8.12-6.86-16.52-6.86c-.28 0-1.26 0-1.26 1.26s2.52 21.28 2.52 33.74c0 .7.56 1.26 1.26 1.26h13.86c.7 0 1.26.56 1.26 1.26v25.2c0 .7-.56 1.26-1.26 1.26h-7.84c-1.12 0-1.68-.56-1.68-.56l-17.92-25.2s-.56-.84-.56-1.4c0-.28.14-.56.84-.56h.7c.7 0 1.26-.56 1.26-1.26 0-12.46 2.52-32.48 2.52-33.74 0-1.26-1.12-1.26-1.26-1.26-8.12 0-11.62 6.86-16.52 6.86s-3.36-4.06-6.16-4.06c-2.8 0-1.26 4.06-6.16 4.06s-8.12-6.86-16.52-6.86c-.28 0-1.26 0-1.26 1.26s2.52 21.28 2.52 33.74c0 .7.56 1.26 1.26 1.26h13.86c.7 0 1.26.56 1.26 1.26v25.2c0 .7-.56 1.26-1.26 1.26h-13.86c-.7 0-1.26.56-1.26 1.26 0 12.46-2.52 32.48-2.52 33.74 0 1.26.98 1.26 1.26 1.26 8.12 0 11.62-6.86 16.52-6.86s3.36 4.06 6.16 4.06c2.8 0 1.26-4.06 6.16-4.06s8.12 6.86 16.52 6.86c.14 0 1.26 0 1.26-1.26s-2.52-21.28-2.52-33.74c0-.7-.56-1.26-1.26-1.26h-13.86c-.7 0-1.26-.56-1.26-1.26V41.1c0-.56.28-.84.56-.84.7 0 1.4 1.12 1.4 1.12l41.86 58.52c.84 1.26 2.38 2.1 4.06 2.1 2.8 0 5.04-2.24 5.04-5.04v-56.7c0-.7.56-1.26 1.26-1.26h13.86c.7 0 1.26-.56 1.26-1.26 0-12.46 2.52-32.48 2.52-33.74 0-1.26-.98-1.26-1.26-1.26z"/></svg>