<svg xmlns="http://www.w3.org/2000/svg" fill="none" viewBox="0 0 500 118"><path fill="#FF1C31" d="M57.383 9.02h-2.66c-8.12 0-14.98 4.34-16.66 5.46-.42.28-.7.42-.98.42s-.42-.28-.42-.42c0-7-5.88-12.6-12.88-12.6-7 0-12.88 5.6-12.88 12.6 0 .14-.14.42-.42.42-.28 0-.7-.28-.98-.42-2.8-1.4-5.18-1.96-7.98-1.96-.7 0-1.26.56-1.26 1.26 0 1.82 2.1 4.62 2.1 29.96 0 .7.56 1.26 1.26 1.26h13.86c.7 0 1.26.56 1.26 1.26v25.2c0 .7-.56 1.26-1.26 1.26H3.623c-.7 0-1.26.56-1.26 1.26 0 25.34-2.1 28.14-2.1 29.96 0 .7.56 1.26 1.26 1.26 2.8 0 5.18-.56 7.98-1.96.28-.14.7-.42.98-.42s.42.28.42.42c0 7 5.88 12.6 12.88 12.6 7 0 12.88-5.6 12.88-12.6 0-.14.14-.42.42-.42.28 0 .56.14.98.42 1.68 1.12 8.54 5.46 16.66 5.46h2.66c17.5 0 28.84-13.02 28.84-30.94v-37.8c0-17.92-11.34-30.94-28.84-30.94zm-27.3 63.7c-.7 0-1.26-.56-1.26-1.26v-25.2c0-.7.56-1.26 1.26-1.26h37.24c4.9 0 8.82 3.92 8.82 8.82V63.9c0 4.9-3.92 8.82-8.82 8.82h-37.24zM177.398 66.84c0-.7-.56-1.26-1.26-1.26h-7.28c-.7 0-1.26.56-1.26 1.26 0 3.5-2.8 5.88-6.3 5.88h-39.34c-.7 0-1.26-.56-1.26-1.26V63.9c0-.7.56-1.26 1.26-1.26h11.76c.7 0 1.26.56 1.26 1.26v1.26c0 .7.56 1.26 1.26 1.26h18.9c.7 0 1.26-.56 1.26-1.26v-12.6c0-.7-.56-1.26-1.26-1.26h-18.9c-.7 0-1.26.56-1.26 1.26v1.26c0 .7-.56 1.26-1.26 1.26h-11.76c-.7 0-1.26-.56-1.26-1.26v-7.56c0-.7.56-1.26 1.26-1.26h39.34c3.5 0 6.3 2.38 6.3 5.88 0 .7.56 1.26 1.26 1.26h7.28c.7 0 1.26-.56 1.26-1.26v-7.14c0-25.34 2.1-28.14 2.1-29.96 0-.7-.56-1.26-1.26-1.26-6.16 0-14.56 1.68-19.88 4.9-.7.42-1.54.98-1.82.98s-.42-.42-.42-.42c-1.82-9.52-10.22-16.8-20.3-16.8s-18.48 7.28-20.3 16.8c0 0-.14.42-.42.42-.28 0-1.12-.56-1.82-.98-5.32-3.22-13.72-4.9-19.88-4.9-.7 0-1.26.56-1.26 1.26 0 1.82 2.1 4.62 2.1 29.96 0 .7.56 1.26 1.26 1.26h13.86c.7 0 1.26.56 1.26 1.26v25.2c0 .7-.56 1.26-1.26 1.26h-13.86c-.7 0-1.26.56-1.26 1.26 0 25.34-2.1 28.14-2.1 29.96 0 .7.56 1.26 1.26 1.26 6.16 0 14.56-1.68 19.88-4.9.7-.42 1.54-.98 1.82-.98s.42.42.42.42c1.82 9.52 10.22 16.8 20.3 16.8s18.48-7.28 20.3-16.8c0 0 .14-.42.42-.42.28 0 1.12.56 1.82.98 5.32 3.22 13.72 4.9 19.88 4.9.7 0 1.26-.56 1.26-1.26 0-1.82-2.1-4.62-2.1-29.96v-7.14zM256.493 76.5c0-34.02-48.58-12.88-48.58-28 0-2.1 2.1-3.78 4.2-3.78h24.78c3.5 0 6.3 2.38 6.3 5.88 0 .7.56 1.26 1.26 1.26h7.28c.7 0 1.26-.56 1.26-1.26v-6.86c0-25.34 2.1-28.14 2.1-29.96 0-.7-.56-1.26-1.26-1.26-2.8 0-6.02 2.8-8.26 5.04-.28.28-.7.7-1.12.7-.42 0-.84-.28-1.26-1.54-2.8-8.4-9.8-16.1-22.26-16.1s-19.32 7.7-22.12 16.1c-.42 1.26-.84 1.54-1.26 1.54-.42 0-.84-.42-1.12-.7-2.24-2.24-5.46-5.04-8.26-5.04-.7 0-1.26.56-1.26 1.26 0 1.82 1.96 2.1 2.1 26.18v1.26c0 34.02 48.58 12.74 48.58 27.86 0 2.1-1.68 3.92-3.78 3.92h-29.96c-3.5 0-6.3-2.38-6.3-5.88 0-.7-.56-1.26-1.26-1.26h-7.28c-.7 0-1.26.56-1.26 1.26v8.26c-.14 24.08-2.1 26.74-2.1 28.56 0 .7.56 1.26 1.26 1.26 2.8 0 6.02-2.8 8.26-5.04.28-.28.7-.7 1.12-.7.42 0 .84.28 1.26 1.54 2.8 8.4 12.04 16.1 24.5 16.1s21.84-7.7 24.64-16.1c.42-1.26.84-1.54 1.26-1.54.42 0 .84.42 1.12.7 2.24 2.24 5.46 5.04 8.26 5.04.7 0 1.26-.56 1.26-1.26 0-1.82-2.1-2.1-2.1-27.44zM307.81 72.72h-13.86c-.7 0-1.26-.56-1.26-1.26v-25.2c0-.7.56-1.26 1.26-1.26h13.86c.7 0 1.26-.56 1.26-1.26 0-25.34 2.1-28.14 2.1-29.96 0-.7-.56-1.26-1.26-1.26-2.8 0-5.18.56-7.98 1.96-.28.14-.7.42-.98.42s-.42-.28-.42-.42c0-7-5.88-12.6-12.88-12.6-7 0-12.88 5.6-12.88 12.6 0 .14-.14.42-.42.42-.28 0-.7-.28-.98-.42-2.8-1.4-5.18-1.96-7.98-1.96-.7 0-1.26.56-1.26 1.26 0 1.82 2.1 4.62 2.1 29.96 0 .7.56 1.26 1.26 1.26h13.86c.7 0 1.26.56 1.26 1.26v25.2c0 .7-.56 1.26-1.26 1.26h-13.86c-.7 0-1.26.56-1.26 1.26 0 25.34-2.1 28.14-2.1 29.96 0 .7.56 1.26 1.26 1.26 2.8 0 5.18-.56 7.98-1.96.28-.14.7-.42.98-.42s.42.28.42.42c0 7 5.88 12.6 12.88 12.6 7 0 12.88-5.6 12.88-12.6 0-.14.14-.42.42-.42.28 0 .7.28.98.42 2.8 1.4 5.18 1.96 7.98 1.96.7 0 1.26-.56 1.26-1.26 0-1.82-2.1-4.62-2.1-29.96 0-.7-.56-1.26-1.26-1.26zM391.38 57.46c0-.7-.56-1.26-1.26-1.26h-23.94c-.7 0-1.26.56-1.26 1.26v5.04c0 .7.56 1.26 1.26 1.26h13.86c.7 0 1.26.56 1.26 1.26v2.1c0 3.5-2.8 5.88-6.3 5.88h-35.42c-6.16 0-11.2-5.04-11.2-11.2v-5.88c0-6.16 5.04-11.2 11.2-11.2h35.7c3.5 0 6.3 2.38 6.3 5.88 0 .7.56 1.26 1.26 1.26h7.28c.7 0 1.26-.56 1.26-1.26v-6.86c0-25.34 2.1-28.14 2.1-29.96 0-.7-.56-1.26-1.26-1.26-2.8 0-6.02 2.8-8.26 5.04-.28.28-.7.7-1.12.7-.42 0-.84-.28-1.26-1.54-2.8-8.4-13.86-16.1-26.32-16.1s-23.52 7.7-26.32 16.1c-.42 1.26-.84 1.54-1.26 1.54-.42 0-.84-.42-1.12-.7-2.24-2.24-5.46-5.04-8.26-5.04-.7 0-1.26.56-1.26 1.26 0 1.82 2.1 4.62 2.1 29.96v30.24c0 25.34-2.1 28.14-2.1 29.96 0 .7.56 1.26 1.26 1.26 2.8 0 6.02-2.8 8.26-5.04.28-.28.7-.7 1.12-.7.42 0 .84.28 1.26 1.54 2.8 8.4 13.86 16.1 26.32 16.1s23.52-7.7 26.32-16.1c.42-1.26.84-1.54 1.26-1.54.42 0 .84.42 1.12.7 2.24 2.24 5.46 5.04 8.26 5.04.7 0 1.26-.56 1.26-1.26 0-1.82-2.1-4.62-2.1-29.96V57.46zM409.565 102.82c.28 0 .42.28.42.42 0 7 5.88 12.6 12.88 12.6 7 0 12.88-5.6 12.88-12.6 0-.14.14-.42.42-.42.28 0 .7.28.98.42 2.8 1.4 5.18 1.96 7.98 1.96.7 0 1.26-.56 1.26-1.26 0-1.82-2.1-4.62-2.1-29.96 0-.7-.56-1.26-1.26-1.26h-13.86c-.7 0-1.26-.56-1.26-1.26V47.1c0-.56.28-.84.56-.84.7 0 1.4 1.12 1.4 1.12l41.86 58.52c.84 1.26 2.38 2.1 4.06 2.1 2.8 0 5.04-2.24 5.04-5.04v-56.7c0-.7.56-1.26 1.26-1.26h13.86c.7 0 1.26-.56 1.26-1.26 0-25.34 2.1-28.14 2.1-29.96 0-.7-.56-1.26-1.26-1.26-2.8 0-5.18.56-7.98 1.96-.28.14-.7.42-.98.42s-.42-.28-.42-.42c0-7-5.88-12.6-12.88-12.6-7 0-12.88 5.6-12.88 12.6 0 .14-.14.42-.42.42-.28 0-.7-.28-.98-.42-2.8-1.4-5.18-1.96-7.98-1.96-.7 0-1.26.56-1.26 1.26 0 1.82 2.1 4.62 2.1 29.96 0 .7.56 1.26 1.26 1.26h13.86c.7 0 1.26.56 1.26 1.26v25.2c0 .7-.56 1.26-1.26 1.26h-7.84c-1.12 0-1.68-.56-1.68-.56l-17.92-25.2s-.56-.84-.56-1.4c0-.28.14-.56.84-.56h.7c.7 0 1.26-.56 1.26-1.26 0-25.34 2.1-28.14 2.1-29.96 0-.7-.56-1.26-1.26-1.26-2.8 0-5.18.56-7.98 1.96-.28.14-.7.42-.98.42s-.42-.28-.42-.42c0-7-5.88-12.6-12.88-12.6-7 0-12.88 5.6-12.88 12.6 0 .14-.14.42-.42.42-.28 0-.7-.28-.98-.42-2.8-1.4-5.18-1.96-7.98-1.96-.7 0-1.26.56-1.26 1.26 0 1.82 2.1 4.62 2.1 29.96 0 .7.56 1.26 1.26 1.26h13.86c.7 0 1.26.56 1.26 1.26v25.2c0 .7-.56 1.26-1.26 1.26h-13.86c-.7 0-1.26.56-1.26 1.26 0 25.34-2.1 28.14-2.1 29.96 0 .7.56 1.26 1.26 1.26 2.8 0 5.18-.56 7.98-1.96.28-.14.7-.42.98-.42z"/></svg>