<svg xmlns="http://www.w3.org/2000/svg" fill="none" viewBox="0 0 509 110"><path fill="#FF1C31" d="M86.372 37.92c.28-11.76 2.52-22.68 2.52-23.94 0-1.26-.7-1.96-1.96-1.96-28.14 0-23.52-9.24-42.14-9.24s-14 9.24-42.14 9.24c-1.26 0-1.96.7-1.96 1.96s2.52 13.3 2.52 25.76c0 .7.56 1.26 1.26 1.26h13.86c.7 0 1.26.56 1.26 1.26v25.2c0 .7-.56 1.26-1.26 1.26H4.472c-.7 0-1.26.56-1.26 1.26 0 12.46-2.52 24.5-2.52 25.76 0 1.26.7 1.96 1.96 1.96 28.14 0 23.52 9.24 42.14 9.24s14-9.24 42.14-9.24c1.26 0 1.96-.7 1.96-1.96s-2.24-12.18-2.52-23.94V37.92zm-10.08 11.9V59.9c0 4.9-3.92 8.82-8.82 8.82h-36.54c-.7 0-1.26-.56-1.26-1.26v-25.2c0-.7.56-1.26 1.26-1.26h36.54c4.9 0 8.82 3.92 8.82 8.82zM181.255 62.84c0-.7-.56-1.26-1.26-1.26h-7.28c-.7 0-1.26.56-1.26 1.26 0 3.5-2.8 5.88-6.3 5.88h-39.34c-.7 0-1.26-.56-1.26-1.26V59.9c0-.7.56-1.26 1.26-1.26h11.76c.7 0 1.26.56 1.26 1.26v1.26c0 .7.56 1.26 1.26 1.26h18.9c.7 0 1.26-.56 1.26-1.26v-12.6c0-.7-.56-1.26-1.26-1.26h-18.9c-.7 0-1.26.56-1.26 1.26v1.26c0 .7-.56 1.26-1.26 1.26h-11.76c-.7 0-1.26-.56-1.26-1.26v-7.56c0-.7.56-1.26 1.26-1.26h39.34c3.5 0 6.3 2.38 6.3 5.88 0 .7.56 1.26 1.26 1.26h7.28c.7 0 1.26-.56 1.26-1.26v-7.14c0-12.46 2.52-24.5 2.52-25.76 0-1.26-.7-1.96-1.96-1.96-28.14 0-23.52-9.24-42.14-9.24s-14 9.24-42.14 9.24c-1.26 0-1.96.7-1.96 1.96s2.52 13.3 2.52 25.76c0 .7.56 1.26 1.26 1.26h13.86c.7 0 1.26.56 1.26 1.26v25.2c0 .7-.56 1.26-1.26 1.26h-13.86c-.7 0-1.26.56-1.26 1.26 0 12.46-2.52 24.5-2.52 25.76 0 1.26.7 1.96 1.96 1.96 28.14 0 23.52 9.24 42.14 9.24s14-9.24 42.14-9.24c1.26 0 1.96-.7 1.96-1.96s-2.52-13.3-2.52-25.76v-7.14zM261.291 71.1c0-33.18-47.88-11.48-47.88-26.6 0-2.1 2.1-3.78 4.2-3.78h24.08c3.5 0 6.3 2.38 6.3 5.88 0 .7.56 1.26 1.26 1.26h7.28c.7 0 1.26-.56 1.26-1.26v-6.02c0-12.46 2.52-24.5 2.52-25.76 0-1.26-.7-1.96-1.96-1.96-17.36 0-13.58-11.06-32.2-11.06-18.62 0-14.84 11.06-32.2 11.06-1.26 0-1.96.7-1.96 1.96s2.52 13.3 2.52 25.76c0 30.24 47.88 10.08 47.88 24.5 0 2.1-1.68 3.92-3.78 3.92h-29.26c-3.5 0-6.3-2.38-6.3-5.88 0-.7-.56-1.26-1.26-1.26h-7.28c-.7 0-1.26.56-1.26 1.26v7.84c0 12.46-2.52 24.5-2.52 25.76 0 1.26.7 1.96 1.96 1.96 17.36 0 15.96 11.06 34.58 11.06 18.62 0 17.22-11.06 34.58-11.06 1.26 0 1.96-.7 1.96-1.96s-2.52-13.16-2.52-25.62zM298.598 42.26c0-.7.56-1.26 1.26-1.26h13.86c.7 0 1.26-.56 1.26-1.26 0-12.46 2.52-24.5 2.52-25.76 0-1.26-.7-1.96-1.96-1.96-6.16 0-13.44-7.28-21.98-7.28-8.54 0-15.82 7.28-21.98 7.28-1.26 0-1.96.7-1.96 1.96s2.52 13.3 2.52 25.76c0 .7.56 1.26 1.26 1.26h13.86c.7 0 1.26.56 1.26 1.26v25.2c0 .7-.56 1.26-1.26 1.26h-13.86c-.7 0-1.26.56-1.26 1.26 0 12.46-2.52 24.5-2.52 25.76 0 1.26.7 1.96 1.96 1.96 6.16 0 13.44 7.28 21.98 7.28 8.54 0 15.82-7.28 21.98-7.28 1.26 0 1.96-.7 1.96-1.96s-2.52-13.3-2.52-25.76c0-.7-.56-1.26-1.26-1.26h-13.86c-.7 0-1.26-.56-1.26-1.26v-25.2zM398.929 53.88c0-.7-.56-1.26-1.26-1.26h-23.94c-.7 0-1.26.56-1.26 1.26v5.04c0 .7.56 1.26 1.26 1.26h13.86c.7 0 1.26.56 1.26 1.26v1.68c0 3.5-2.8 5.88-6.3 5.88h-35.42c-6.16 0-11.2-5.04-11.2-11.2v-5.88c0-6.16 5.04-11.2 11.2-11.2h35.7c3.5 0 6.3 2.38 6.3 5.88 0 .7.56 1.26 1.26 1.26h7.28c.7 0 1.26-.56 1.26-1.26v-6.86c0-12.46 2.52-24.5 2.52-25.76 0-1.26-.7-1.96-1.96-1.96-17.36 0-18.06-11.06-36.68-11.06s-19.32 11.06-36.68 11.06c-1.26 0-1.96.7-1.96 1.96s2.52 13.3 2.52 25.76v30.24c0 12.46-2.52 24.5-2.52 25.76 0 1.26.7 1.96 1.96 1.96 17.36 0 18.06 11.06 36.68 11.06s19.32-11.06 36.68-11.06c1.26 0 1.96-.7 1.96-1.96s-2.52-13.3-2.52-25.76v-16.1zM506.954 12.02c-6.16 0-13.44-7.28-21.98-7.28-8.54 0-15.82 7.28-21.98 7.28-1.26 0-1.96.7-1.96 1.96s2.52 13.3 2.52 25.76c0 .7.56 1.26 1.26 1.26h13.86c.7 0 1.26.56 1.26 1.26v25.2c0 .7-.56 1.26-1.26 1.26h-7.84c-1.12 0-1.68-.56-1.68-.56l-17.92-25.2s-.56-.84-.56-1.4c0-.28.14-.56.84-.56h.7c.7 0 1.26-.56 1.26-1.26 0-12.46 2.52-24.5 2.52-25.76 0-1.26-.7-1.96-1.96-1.96-6.16 0-13.44-7.28-21.98-7.28-8.54 0-15.82 7.28-21.98 7.28-1.26 0-1.96.7-1.96 1.96s2.52 13.3 2.52 25.76c0 .7.56 1.26 1.26 1.26h13.86c.7 0 1.26.56 1.26 1.26v25.2c0 .7-.56 1.26-1.26 1.26h-13.86c-.7 0-1.26.56-1.26 1.26 0 12.46-2.52 24.5-2.52 25.76 0 1.26.7 1.96 1.96 1.96 6.16 0 13.44 7.28 21.98 7.28 8.54 0 15.82-7.28 21.98-7.28 1.26 0 1.96-.7 1.96-1.96s-2.52-13.3-2.52-25.76c0-.7-.56-1.26-1.26-1.26h-13.86c-.7 0-1.26-.56-1.26-1.26V43.1c0-.56.28-.84.56-.84.7 0 1.4 1.12 1.4 1.12l41.86 58.52c.84 1.26 2.38 2.1 4.06 2.1 2.8 0 5.04-2.24 5.04-5.04v-56.7c0-.7.56-1.26 1.26-1.26h13.86c.7 0 1.26-.56 1.26-1.26 0-12.46 2.52-24.5 2.52-25.76 0-1.26-.7-1.96-1.96-1.96z"/></svg>