<svg xmlns="http://www.w3.org/2000/svg" fill="none" viewBox="0 0 486 102"><path fill="#FF1C31" d="M1.586 1.72c-.7 0-1.26.56-1.26 1.26v32.76c0 .7.56 1.26 1.26 1.26h13.86c.7 0 1.26.56 1.26 1.26v25.2c0 .56-.56 1.26-1.26 1.26H1.586c-.7 0-1.26.7-1.26 1.26v32.76c0 .7.56 1.26 1.26 1.26h52.36c16.66 0 30.24-13.58 30.24-30.24v-37.8c0-16.66-13.58-30.24-30.24-30.24H1.586zm72.52 54.18c0 4.76-3.92 8.82-8.82 8.82h-37.24c-.7 0-1.26-.7-1.26-1.26v-25.2c0-.7.56-1.26 1.26-1.26h37.24c4.9 0 8.82 3.92 8.82 8.82V55.9zM173.964 100c.7 0 1.26-.56 1.26-1.26v-39.9c0-.7-.56-1.26-1.26-1.26h-7.28c-.7 0-1.26.56-1.26 1.26 0 3.36-2.8 5.88-6.3 5.88h-39.34c-.7 0-1.26-.7-1.26-1.26V55.9c0-.7.56-1.26 1.26-1.26h11.76c.7 0 1.26.56 1.26 1.26v1.26c0 .7.56 1.26 1.26 1.26h18.9c.7 0 1.26-.56 1.26-1.26v-12.6c0-.7-.56-1.26-1.26-1.26h-18.9c-.7 0-1.26.56-1.26 1.26v1.26c0 .7-.56 1.26-1.26 1.26h-11.76c-.7 0-1.26-.56-1.26-1.26v-7.56c0-.7.56-1.26 1.26-1.26h39.34c3.5 0 6.3 2.38 6.3 5.88 0 .7.56 1.26 1.26 1.26h7.28c.7 0 1.26-.56 1.26-1.26V2.98c0-.7-.56-1.26-1.26-1.26h-80.64c-.7 0-1.26.56-1.26 1.26v32.76c0 .7.56 1.26 1.26 1.26h13.86c.7 0 1.26.56 1.26 1.26v25.2c0 .56-.56 1.26-1.26 1.26h-13.86c-.7 0-1.26.7-1.26 1.26v32.76c0 .7.56 1.26 1.26 1.26h80.64zM203.553 40.5c0-2.1 2.1-3.78 4.2-3.78h24.08c3.5 0 6.3 2.38 6.3 5.88 0 .7.56 1.26 1.26 1.26h7.28c.7 0 1.26-.56 1.26-1.26V27.62c0-15.26-12.74-27.58-28.14-27.58h-7c-15.4 0-27.86 12.32-28.14 27.72v5.46c0 34.02 47.88 12.74 47.88 27.86 0 2.1-1.68 3.92-3.78 3.92h-29.26c-3.5 0-6.3-2.38-6.3-5.88 0-.7-.56-1.26-1.26-1.26h-7.28c-.7 0-1.26.56-1.26 1.26v14.84c0 15.26 12.74 27.72 28.14 27.72h11.76c15.4 0 28.14-12.32 28.14-27.72V68.5c0-34.02-47.88-12.88-47.88-28zM259.711 1.72c-.7 0-1.26.56-1.26 1.26v32.76c0 .7.56 1.26 1.26 1.26h13.86c.7 0 1.26.56 1.26 1.26v25.2c0 .7-.56 1.26-1.26 1.26h-13.86c-.7 0-1.26.56-1.26 1.26v32.76c0 .7.56 1.26 1.26 1.26h40.32c.7 0 1.26-.56 1.26-1.26V65.98c0-.7-.56-1.26-1.26-1.26h-13.86c-.7 0-1.26-.56-1.26-1.26v-25.2c0-.7.56-1.26 1.26-1.26h13.86c.7 0 1.26-.56 1.26-1.26V2.98c0-.7-.56-1.26-1.26-1.26h-40.32zM339.414.04c-16.66 0-30.24 13.58-30.24 30.24v41.16c0 16.66 13.58 30.24 30.24 30.24h11.9c16.66 0 30.24-13.58 30.24-30.24V49.32c0-.7-.56-1.26-1.26-1.26h-23.94c-.7 0-1.26.56-1.26 1.26v5.04c0 .7.56 1.26 1.26 1.26h13.86c.7 0 1.26.56 1.26 1.26v2.24c0 3.5-2.8 5.88-6.3 5.88h-35.56c-6.16 0-11.2-5.04-11.2-11.2v-5.88c0-6.16 5.04-11.2 11.2-11.2h35.84c3.5 0 6.3 2.38 6.3 5.88 0 .7.56 1.26 1.26 1.26h7.28c.7 0 1.26-.56 1.26-1.26V30.28c0-16.66-13.58-30.24-30.24-30.24h-11.9zM443.608 1.72c-.7 0-1.26.56-1.26 1.26v32.76c0 .7.56 1.26 1.26 1.26h13.86c.7 0 1.26.56 1.26 1.26v25.2c0 .7-.56 1.26-1.26 1.26h-7.84c-1.12 0-1.68-.56-1.68-.56l-17.92-25.2s-.56-.84-.56-1.4c0-.28.14-.56.84-.56h.7c.7 0 1.26-.56 1.26-1.26V2.98c0-.7-.56-1.26-1.26-1.26h-40.32c-.7 0-1.26.56-1.26 1.26v32.76c0 .7.56 1.26 1.26 1.26h13.86c.7 0 1.26.56 1.26 1.26v25.2c0 .7-.56 1.26-1.26 1.26h-13.86c-.7 0-1.26.56-1.26 1.26v32.76c0 .7.56 1.26 1.26 1.26h40.32c.7 0 1.26-.56 1.26-1.26V65.98c0-.7-.56-1.26-1.26-1.26h-13.86c-.7 0-1.26-.56-1.26-1.26V39.1c0-.56.28-.84.56-.84.7 0 1.4 1.12 1.4 1.12l41.86 58.52c.84 1.26 2.38 2.1 4.06 2.1 2.8 0 5.04-2.24 5.04-5.04v-56.7c0-.7.56-1.26 1.26-1.26h13.86c.7 0 1.26-.56 1.26-1.26V2.98c0-.7-.56-1.26-1.26-1.26h-40.32z"/></svg>