<svg xmlns="http://www.w3.org/2000/svg" fill="none" viewBox="0 0 476 108"><path fill="#FF1C31" d="M45.324 1.5c-17.08 0-18.76 5.04-20.02 5.04-.14 0-.28-.14-.28-.28s.14-.56.14-.84c0-1.68-1.26-2.94-2.94-2.94s-2.94 1.26-2.94 2.94c0 .28.14.7.14.84s-.14.28-.28.28c-1.54 0-1.68-3.36-7.84-3.36-5.88 0-10.5 4.9-10.5 10.78v24.78c0 .7.56 1.26 1.26 1.26h13.86c.7 0 1.26.56 1.26 1.26v25.2c0 .7-.56 1.26-1.26 1.26H2.064c-.7 0-1.26.56-1.26 1.26v24.78c0 5.88 4.62 10.78 10.5 10.78 6.16 0 6.3-3.36 7.84-3.36.14 0 .28.14.28.28s-.14.56-.14.84c0 1.68 1.26 2.94 2.94 2.94s2.94-1.26 2.94-2.94c0-.28-.14-.7-.14-.84s.14-.28.28-.28c1.26 0 2.94 5.04 20.02 5.04 30.66 0 38.92-16.8 39.34-33.46v-37.8c-.42-16.66-8.68-33.46-39.34-33.46zm-18.06 64.96v-25.2c0-.7.56-1.26 1.26-1.26h37.24c4.9 0 8.82 3.92 8.82 8.82V58.9c0 4.9-3.92 8.82-8.82 8.82h-37.24c-.7 0-1.26-.56-1.26-1.26zM119.168 40h39.34c3.5 0 6.3 2.38 6.3 5.88 0 .7.56 1.26 1.26 1.26h7.28c.7 0 1.26-.56 1.26-1.26V22.5c0-12.18-10.08-21.84-22.26-21.84-12.6 0-15.12 6.44-16.24 6.44-.14 0-.28-.14-.28-.28s.14-.56.14-.84c0-1.68-1.26-2.94-2.94-2.94s-2.94 1.26-2.94 2.94c0 .28.14.7.14.84s-.14.28-.28.28c-1.12 0-3.78-6.44-16.24-6.44-12.18 0-22.26 9.66-22.26 21.84v16.24c0 .7.56 1.26 1.26 1.26h13.86c.7 0 1.26.56 1.26 1.26v25.2c0 .7-.56 1.26-1.26 1.26h-13.86c-.7 0-1.26.56-1.26 1.26v16.1c0 12.18 10.08 21.84 22.26 21.84 12.46 0 15.12-6.44 16.24-6.44.14 0 .28.14.28.28s-.14.56-.14.84c0 1.68 1.26 2.94 2.94 2.94s2.94-1.26 2.94-2.94c0-.28-.14-.7-.14-.84s.14-.28.28-.28c1.12 0 3.64 6.44 16.24 6.44 12.18 0 22.26-9.66 22.26-21.84V61.84c0-.7-.56-1.26-1.26-1.26h-7.28c-.7 0-1.26.56-1.26 1.26 0 3.5-2.8 5.88-6.3 5.88h-39.34c-.7 0-1.26-.56-1.26-1.26V58.9c0-.7.56-1.26 1.26-1.26h11.76c.7 0 1.26.56 1.26 1.26v1.26c0 .7.56 1.26 1.26 1.26h18.9c.7 0 1.26-.56 1.26-1.26v-12.6c0-.7-.56-1.26-1.26-1.26h-18.9c-.7 0-1.26.56-1.26 1.26v1.26c0 .7-.56 1.26-1.26 1.26h-11.76c-.7 0-1.26-.56-1.26-1.26v-7.56c0-.7.56-1.26 1.26-1.26zM249.586 71.5c0-34.02-47.88-12.6-47.88-27.72 0-2.1 2.1-3.78 4.2-3.78h24.08c3.5 0 6.3 2.38 6.3 5.88 0 .7.56 1.26 1.26 1.26h7.28c.7 0 1.26-.56 1.26-1.26V23.76c0-11.9-7.14-21.56-19.04-21.56-5.04 0-8.96 2.1-9.52 2.1-.14 0-.28-.14-.28-.28s.14-.56.14-.84c0-1.68-1.26-2.94-2.94-2.94s-2.94 1.26-2.94 2.94c0 .28.14.7.14.84s-.14.28-.28.28c-.56 0-4.48-2.1-9.52-2.1-11.9 0-19.04 9.66-19.04 21.56v12.46c0 34.02 47.88 12.6 47.88 27.72 0 2.1-1.68 3.78-3.78 3.78h-29.26c-3.5 0-6.3-2.38-6.3-5.88 0-.7-.56-1.26-1.26-1.26h-7.28c-.7 0-1.26.56-1.26 1.26v22.12c0 11.9 9.52 21.56 21.42 21.56 5.04 0 8.96-2.1 9.52-2.1.14 0 .28.14.28.28s-.14.56-.14.84c0 1.68 1.26 2.94 2.94 2.94s2.94-1.26 2.94-2.94c0-.28-.14-.7-.14-.84s.14-.28.28-.28c.56 0 4.48 2.1 9.52 2.1 11.9 0 21.42-9.66 21.42-21.56V71.5zM281.971 41.26c0-.7.56-1.26 1.26-1.26h13.86c.7 0 1.26-.56 1.26-1.26V13.96c0-6.02-4.62-10.78-10.5-10.78-6.3 0-6.3 3.36-7.84 3.36-.14 0-.28-.14-.28-.28s.14-.56.14-.84c0-1.68-1.26-2.94-2.94-2.94s-2.94 1.26-2.94 2.94c0 .28.14.7.14.84s-.14.28-.28.28c-1.54 0-1.68-3.36-7.84-3.36-5.88 0-10.5 4.76-10.5 10.78v24.78c0 .7.56 1.26 1.26 1.26h13.86c.7 0 1.26.56 1.26 1.26v25.2c0 .7-.56 1.26-1.26 1.26h-13.86c-.7 0-1.26.56-1.26 1.26V93.9c0 5.88 4.62 10.64 10.5 10.64 6.16 0 6.3-3.36 7.84-3.36.14 0 .28.14.28.28s-.14.56-.14.84c0 1.68 1.26 2.94 2.94 2.94s2.94-1.26 2.94-2.94c0-.28-.14-.7-.14-.84s.14-.28.28-.28c1.54 0 1.54 3.36 7.84 3.36 5.88 0 10.5-4.76 10.5-10.64V68.98c0-.7-.56-1.26-1.26-1.26h-13.86c-.7 0-1.26-.56-1.26-1.26v-25.2zM325.443 39.72h31.78c3.5 0 6.3 2.38 6.3 5.88 0 .7.56 1.26 1.26 1.26h7.28c.7 0 1.26-.56 1.26-1.26V23.76c0-11.9-9.66-21.56-21.56-21.56-5.04 0-8.96 2.1-9.52 2.1-.14 0-.28-.14-.28-.28s.14-.56.14-.84c0-1.68-1.26-2.94-2.94-2.94s-2.94 1.26-2.94 2.94c0 .28.14.7.14.84s-.14.28-.28.28c-.56 0-4.48-2.1-9.52-2.1-11.9 0-21.56 9.66-21.56 21.56v60.2c0 11.9 9.66 21.56 21.56 21.56 5.04 0 8.96-2.1 9.52-2.1.14 0 .28.14.28.28s-.14.56-.14.84c0 1.68 1.26 2.94 2.94 2.94s2.94-1.26 2.94-2.94c0-.28-.14-.7-.14-.84s.14-.28.28-.28c.56 0 4.48 2.1 9.52 2.1 11.9 0 21.56-9.66 21.56-21.56V52.74c0-.7-.56-1.26-1.26-1.26h-23.66c-.7 0-1.26.56-1.26 1.26v5.04c0 .7.56 1.26 1.26 1.26h13.86c.7 0 1.26.56 1.26 1.26v1.82c0 3.5-2.8 5.88-6.3 5.88h-31.78c-6.16 0-11.2-5.04-11.2-11.2v-5.88c0-6.16 5.04-11.2 11.2-11.2zM465.322 3.18c-6.3 0-6.3 3.36-7.84 3.36-.14 0-.28-.14-.28-.28s.14-.56.14-.84c0-1.68-1.26-2.94-2.94-2.94s-2.94 1.26-2.94 2.94c0 .28.14.7.14.84s-.14.28-.28.28c-1.54 0-1.68-3.36-7.84-3.36-5.88 0-10.5 4.76-10.5 10.78v24.78c0 .7.56 1.26 1.26 1.26h13.86c.7 0 1.26.56 1.26 1.26v25.2c0 .7-.56 1.26-1.26 1.26h-7.84c-1.12 0-1.68-.56-1.68-.56l-17.92-25.2s-.56-.84-.56-1.4c0-.28.14-.56.84-.56h.7c.7 0 1.26-.56 1.26-1.26V13.96c0-6.02-4.62-10.78-10.5-10.78-6.3 0-6.3 3.36-7.84 3.36-.14 0-.28-.14-.28-.28s.14-.56.14-.84c0-1.68-1.26-2.94-2.94-2.94s-2.94 1.26-2.94 2.94c0 .28.14.7.14.84s-.14.28-.28.28c-1.54 0-1.68-3.36-7.84-3.36-5.88 0-10.5 4.76-10.5 10.78v24.78c0 .7.56 1.26 1.26 1.26h13.86c.7 0 1.26.56 1.26 1.26v25.2c0 .7-.56 1.26-1.26 1.26h-13.86c-.7 0-1.26.56-1.26 1.26V93.9c0 5.88 4.62 10.64 10.5 10.64 6.16 0 6.3-3.36 7.84-3.36.14 0 .28.14.28.28s-.14.56-.14.84c0 1.68 1.26 2.94 2.94 2.94s2.94-1.26 2.94-2.94c0-.28-.14-.7-.14-.84s.14-.28.28-.28c1.54 0 1.54 3.36 7.84 3.36 5.88 0 10.5-4.76 10.5-10.64V68.98c0-.7-.56-1.26-1.26-1.26h-13.86c-.7 0-1.26-.56-1.26-1.26V42.1c0-.56.28-.84.56-.84.7 0 1.4 1.12 1.4 1.12l41.86 58.52c.84 1.26 2.38 2.1 4.06 2.1 2.8 0 5.04-2.24 5.04-5.04v-56.7c0-.7.56-1.26 1.26-1.26h13.86c.7 0 1.26-.56 1.26-1.26V13.96c0-6.02-4.62-10.78-10.5-10.78z"/></svg>