<svg xmlns="http://www.w3.org/2000/svg" fill="none" viewBox="0 0 489 116"><path fill="#FF1C31" d="M68.99 8.72h-3.64c-7.7 0-6.86-8.26-8.26-8.26-1.4 0-.56 8.26-8.26 8.26H30.49c-7.7 0-6.86-8.26-8.26-8.26-1.4 0-.56 8.26-8.26 8.26h-7.7c-.7 0-.98.28-1.12.7C4.73 10.54.81 38.54.81 42.74c0 .7.56 1.26 1.26 1.26h13.86c.7 0 1.26.56 1.26 1.26v25.2c0 .7-.56 1.26-1.26 1.26H2.07c-.7 0-1.26.56-1.26 1.26 0 4.2 3.92 32.2 4.34 33.32.14.42.42.7 1.12.7h7.7c7.7 0 6.86 8.26 8.26 8.26 1.4 0 .56-8.26 8.26-8.26h18.34c7.7 0 6.86 8.26 8.26 8.26 1.4 0 .56-8.26 8.26-8.26h3.64c10.5 0 15.54-11.2 15.54-34.02V42.74c0-22.82-5.04-34.02-15.54-34.02zm5.46 52.08c0 5.32-3.78 9.8-8.68 10.92H28.53c-.7 0-1.26-.56-1.26-1.26v-25.2c0-.7.56-1.26 1.26-1.26h37.24c4.9 1.12 8.68 5.6 8.68 10.92v5.88zM123.097 8.72c-7.7 0-6.86-8.26-8.26-8.26-1.4 0-.56 8.26-8.26 8.26h-9.8c-.7 0-.98.28-1.12.7-.42 1.12-4.34 29.12-4.34 33.32 0 .7.56 1.26 1.26 1.26h13.86c.7 0 1.26.56 1.26 1.26v25.2c0 .7-.56 1.26-1.26 1.26h-13.86c-.7 0-1.26.56-1.26 1.26 0 4.2 3.92 32.2 4.34 33.32.14.42.42.7 1.12.7h9.8c7.7 0 6.86 8.26 8.26 8.26 1.4 0 .56-8.26 8.26-8.26h19.6c7.7 0 6.86 8.26 8.26 8.26 1.4 0 .56-8.26 8.26-8.26h9.8c.7 0 .98-.28 1.12-.7.42-1.12 4.34-28.42 4.34-32.62 0-4.2-.56-7.84-.56-7.84 0-.7-.56-1.26-1.26-1.26h-7.28c-.7 0-1.26.56-1.26 1.26 0 3.5-2.8 5.88-6.3 5.88h-38.78c-.7 0-1.26-.56-1.26-1.26V62.9c0-.7.56-1.26 1.26-1.26h11.2c.7 0 1.26.56 1.26 1.26v1.26c0 .7.56 1.26 1.26 1.26h18.9c.7 0 1.26-.56 1.26-1.26v-12.6c0-.7-.56-1.26-1.26-1.26h-18.9c-.7 0-1.26.56-1.26 1.26v1.26c0 .7-.56 1.26-1.26 1.26h-11.2c-.7 0-1.26-.56-1.26-1.26v-7.56c0-.7.56-1.26 1.26-1.26h38.78c3.5 0 6.3 2.38 6.3 5.88 0 .7.56 1.26 1.26 1.26h7.28c.7 0 1.26-.56 1.26-1.26 0 0 .56-3.64.56-7.84 0-4.2-3.92-31.5-4.34-32.62-.14-.42-.42-.7-1.12-.7h-9.8c-7.7 0-6.86-8.26-8.26-8.26-1.4 0-.56 8.26-8.26 8.26h-19.6zM201.575 47.78c0-2.1 2.1-3.78 4.2-3.78h32.76c3.5 0 6.3 2.38 6.3 5.88 0 .7.56 1.26 1.26 1.26h7.28c.7 0 1.26-.56 1.26-1.26v-7.14c0-22.82-5.04-34.02-15.54-34.02h-12.04c-7.56 0-6.86-8.26-8.26-8.26-1.4 0-.7 8.26-8.26 8.26h-12.32c-10.5 0-15.54 8.68-15.54 31.5 0 34.02 56.56 12.6 56.56 27.72 0 2.1-1.68 3.78-3.78 3.78h-37.94c-3.5 0-6.3-2.38-6.3-5.88 0-.7-.56-1.26-1.26-1.26h-7.28c-.7 0-1.26.56-1.26 1.26v7.14c0 22.82 5.04 34.02 15.54 34.02h13.72c7.56 0 6.86 8.26 8.26 8.26 1.4 0 .7-8.26 8.26-8.26h15.4c10.5 0 15.54-8.12 15.54-30.94v-.56c0-34.02-56.56-12.6-56.56-27.72zM292.26 44h13.86c.7 0 1.26-.56 1.26-1.26 0-4.2-3.92-32.2-4.34-33.32-.14-.42-.42-.7-1.12-.7h-7.7c-7.7 0-6.86-8.26-8.26-8.26-1.4 0-.56 8.26-8.26 8.26H270c-.7 0-.98.28-1.12.7-.42 1.12-4.34 29.12-4.34 33.32 0 .7.56 1.26 1.26 1.26h13.86c.7 0 1.26.56 1.26 1.26v25.2c0 .7-.56 1.26-1.26 1.26H265.8c-.7 0-1.26.56-1.26 1.26 0 4.2 3.92 32.2 4.34 33.32.14.42.42.7 1.12.7h7.7c7.7 0 6.86 8.26 8.26 8.26 1.4 0 .56-8.26 8.26-8.26h7.7c.7 0 .98-.28 1.12-.7.42-1.12 4.34-29.12 4.34-33.32 0-.7-.56-1.26-1.26-1.26h-13.86c-.7 0-1.26-.56-1.26-1.26v-25.2c0-.7.56-1.26 1.26-1.26zM384.312 55.9h-23.52c-.7 0-1.26.56-1.26 1.26v5.04c0 .7.56 1.26 1.26 1.26h13.86c.7 0 1.26.56 1.26 1.26v1.12c0 3.5-2.8 5.88-6.3 5.88h-37.8c-4.06 0-7.7-5.6-7.7-10.92v-5.88c0-5.32 3.5-10.92 7.7-10.92h36.82c4.48 0 7.28 2.38 7.28 5.88 0 .7.56 1.26 1.26 1.26h7.28c.7 0 1.26-.56 1.26-1.26 0 0 .56-4.34.56-7.14 0-22.82-5.04-34.02-15.54-34.02h-11.62c-7.7 0-6.86-8.26-8.26-8.26-1.4 0-.56 8.26-8.26 8.26h-13.02c-10.5 0-15.54 11.2-15.54 34.02v30.24c0 22.82 5.04 34.02 15.54 34.02h13.02c7.7 0 6.86 8.26 8.26 8.26 1.4 0 .56-8.26 8.26-8.26h11.62c10.5 0 15.54-11.2 15.54-34.02 0-7.98-.7-15.82-.7-15.82 0-.7-.56-1.26-1.26-1.26zM484.476 9.42c-.14-.42-.42-.7-1.12-.7h-7.7c-7.7 0-6.86-8.26-8.26-8.26-1.4 0-.56 8.26-8.26 8.26h-7.7c-.7 0-.98.28-1.12.7-.42 1.12-4.34 29.12-4.34 33.32 0 .7.56 1.26 1.26 1.26h13.86c.7 0 1.26.56 1.26 1.26v25.2c0 .7-.56 1.26-1.26 1.26h-7.84c-1.12 0-1.68-.56-1.68-.56l-17.92-25.2s-.56-.84-.56-1.4c0-.28.14-.56.84-.56h.7c.7 0 1.26-.56 1.26-1.26 0-4.2-3.92-32.2-4.34-33.32-.14-.42-.42-.7-1.12-.7h-7.7c-7.7 0-6.86-8.26-8.26-8.26-1.4 0-.56 8.26-8.26 8.26h-7.7c-.7 0-.98.28-1.12.7-.42 1.12-4.34 29.12-4.34 33.32 0 .7.56 1.26 1.26 1.26h13.86c.7 0 1.26.56 1.26 1.26v25.2c0 .7-.56 1.26-1.26 1.26h-13.86c-.7 0-1.26.56-1.26 1.26 0 4.2 3.92 32.2 4.34 33.32.14.42.42.7 1.12.7h7.7c7.7 0 6.86 8.26 8.26 8.26 1.4 0 .56-8.26 8.26-8.26h7.28c.7 0 .98-.28 1.12-.7.42-1.12 4.2-29.12 4.2-33.32 0-.7-.56-1.26-1.26-1.26h-13.3c-.7 0-1.26-.56-1.26-1.26V46.1c0-.56.28-.84.56-.84.7 0 1.4 1.12 1.4 1.12l41.86 58.52c.84 1.26 2.38 2.1 4.06 2.1 2.8 0 5.04-2.24 5.04-5.04v-56.7c0-.7.56-1.26 1.26-1.26h13.86c.7 0 1.26-.56 1.26-1.26 0-4.2-3.92-32.2-4.34-33.32z"/></svg>