<svg xmlns="http://www.w3.org/2000/svg" fill="none" viewBox="0 0 498 108"><path fill="#FF1C31" d="M44.603 1.64c-18.2 0-44.1 2.52-44.1 14.98 0 9.8 2.1 9.66 2.1 22.12 0 .7.56 1.26 1.26 1.26h13.86c.7 0 1.26.56 1.26 1.26v25.2c0 .7-.56 1.26-1.26 1.26H3.863c-.7 0-1.26.56-1.26 1.26 0 12.46-2.1 12.46-2.1 22.26 0 12.46 25.9 14.7 44.1 14.7 41.44 0 41.86-25.9 41.86-38.36v-27.3c0-12.46.42-38.64-41.86-38.64zm-15.54 64.82v-25.2c0-.7.56-1.26 1.26-1.26h37.24c4.9 0 8.82 3.92 8.82 8.82V58.9c0 4.9-3.92 8.82-8.82 8.82h-37.24c-.7 0-1.26-.56-1.26-1.26zM178.185 61.84c0-.7-.56-1.26-1.26-1.26h-7.28c-.7 0-1.26.56-1.26 1.26 0 3.5-2.8 5.88-6.3 5.88h-39.34c-.7 0-1.26-.56-1.26-1.26V58.9c0-.7.56-1.26 1.26-1.26h11.76c.7 0 1.26.56 1.26 1.26v1.26c0 .7.56 1.26 1.26 1.26h18.9c.7 0 1.26-.56 1.26-1.26v-12.6c0-.7-.56-1.26-1.26-1.26h-18.9c-.7 0-1.26.56-1.26 1.26v1.26c0 .7-.56 1.26-1.26 1.26h-11.76c-.7 0-1.26-.56-1.26-1.26v-7.56c0-.7.56-1.26 1.26-1.26h39.34c3.5 0 6.3 2.38 6.3 5.88 0 .7.56 1.26 1.26 1.26h7.28c.7 0 1.26-.56 1.26-1.26v-7.14c0-12.46 2.1-12.32 2.1-22.12 0-12.46-25.48-14.98-43.68-14.98s-43.68 2.52-43.68 14.98c0 9.8 2.1 9.66 2.1 22.12 0 .7.56 1.26 1.26 1.26h13.86c.7 0 1.26.56 1.26 1.26v25.2c0 .7-.56 1.26-1.26 1.26h-13.86c-.7 0-1.26.56-1.26 1.26 0 12.46-2.1 12.46-2.1 22.26 0 12.46 25.48 14.7 43.68 14.7s43.68-2.24 43.68-14.7c0-9.8-2.1-9.8-2.1-22.26v-7.14zM189.501 68.98c0 12.46-2.24 12.32-2.24 22.12 0 12.46 17.92 15.54 35.28 15.54 28 0 37.24-11.76 37.24-29.4v-7.28c0-34.02-50.96-11.06-50.96-26.18 0-2.1 1.68-3.78 3.78-3.78h25.06c3.5 0 6.3 2.38 6.3 5.88 0 .7.56 1.26 1.26 1.26h7.28c.7 0 1.26-.56 1.26-1.26v-6.86c0-12.46 2.24-12.32 2.24-22.12 0-12.46-15.54-15.54-32.9-15.54-23.38 0-33.18 11.34-33.18 28.84v6.02c0 34.02 50.96 12.6 50.96 27.72 0 2.1-1.68 3.78-3.78 3.78h-31.5c-3.5 0-6.3-2.38-6.3-5.88 0-.7-.56-1.26-1.26-1.26h-7.28c-.7 0-1.26.56-1.26 1.26v7.14zM309.417 67.72h-13.86c-.7 0-1.26-.56-1.26-1.26v-25.2c0-.7.56-1.26 1.26-1.26h13.86c.7 0 1.26-.56 1.26-1.26 0-12.46 2.1-12.18 2.1-21.98s-14.98-13.02-23.52-13.02-23.52 3.22-23.52 13.02c0 9.8 2.1 9.52 2.1 21.98 0 .7.56 1.26 1.26 1.26h13.86c.7 0 1.26.56 1.26 1.26v25.2c0 .7-.56 1.26-1.26 1.26h-13.86c-.7 0-1.26.56-1.26 1.26 0 12.46-2.1 12.18-2.1 21.98s14.98 13.02 23.52 13.02 23.52-3.22 23.52-13.02c0-9.8-2.1-9.52-2.1-21.98 0-.7-.56-1.26-1.26-1.26zM388.358 52.32c0-.7-.56-1.26-1.26-1.26h-23.94c-.7 0-1.26.56-1.26 1.26v5.04c0 .7.56 1.26 1.26 1.26h13.86c.7 0 1.26.56 1.26 1.26v2.24c0 3.5-2.8 5.88-6.3 5.88h-32.48c-6.16 0-11.2-5.04-11.2-11.2v-5.88c0-6.16 5.04-11.2 11.2-11.2h32.76c3.5 0 6.3 2.38 6.3 5.88 0 .7.56 1.26 1.26 1.26h7.28c.7 0 1.26-.56 1.26-1.26V40c0-12.46 2.1-11.9 2.1-21.7 0-12.46-22.68-17.36-36.12-17.36-13.44 0-35.28 3.92-35.28 33.74V69.4c0 35.28 22.26 37.66 35.7 37.66 13.44 0 35.7-3.5 35.7-15.96 0-9.8-2.1-9.24-2.1-21.7V52.32zM473.564 3.74c-8.54 0-23.52 3.22-23.52 13.02 0 9.8 2.1 9.52 2.1 21.98 0 .7.56 1.26 1.26 1.26h13.86c.7 0 1.26.56 1.26 1.26v25.2c0 .7-.56 1.26-1.26 1.26h-7.84c-1.12 0-1.68-.56-1.68-.56l-17.92-25.2s-.56-.84-.56-1.4c0-.28.14-.56.84-.56h.7c.7 0 1.26-.56 1.26-1.26 0-12.46 2.1-12.18 2.1-21.98s-14.98-13.02-23.52-13.02-23.52 3.22-23.52 13.02c0 9.8 2.1 9.52 2.1 21.98 0 .7.56 1.26 1.26 1.26h13.86c.7 0 1.26.56 1.26 1.26v25.2c0 .7-.56 1.26-1.26 1.26h-13.86c-.7 0-1.26.56-1.26 1.26 0 12.46-2.1 12.18-2.1 21.98s14.98 13.02 23.52 13.02 23.52-3.22 23.52-13.02c0-9.8-2.1-9.52-2.1-21.98 0-.7-.56-1.26-1.26-1.26h-13.86c-.7 0-1.26-.56-1.26-1.26V42.1c0-.56.28-.84.56-.84.7 0 1.4 1.12 1.4 1.12l41.86 58.52c.84 1.26 2.38 2.1 4.06 2.1 2.8 0 5.04-2.24 5.04-5.04v-56.7c0-.7.56-1.26 1.26-1.26h13.86c.7 0 1.26-.56 1.26-1.26 0-12.46 2.1-12.18 2.1-21.98s-14.98-13.02-23.52-13.02z"/></svg>