<svg xmlns="http://www.w3.org/2000/svg" fill="none" viewBox="0 0 509 112"><path fill="#FF1C31" d="M55.694 1.82h-6.16c-8.82 0-16.94 3.78-22.68 9.52-.84.84-1.26 1.4-1.82 1.4s-.98-.56-1.82-1.68c-2.38-3.08-6.02-5.04-10.22-5.04-7.28 0-12.88 5.88-12.88 13.16 0 5.46 3.36 8.12 3.36 21.56 0 .7.56 1.26 1.26 1.26h13.86c.7 0 1.26.56 1.26 1.26v25.2c0 .7-.56 1.26-1.26 1.26H4.734c-.7 0-1.26.56-1.26 1.26 0 13.44-3.36 16.1-3.36 21.56 0 7.28 5.6 13.16 12.88 13.16 4.2 0 7.84-1.96 10.22-5.04.84-1.12 1.26-1.68 1.82-1.68s.98.56 1.82 1.4c5.74 5.74 13.86 9.52 22.68 9.52h6.16c17.5 0 31.64-13.58 31.64-35.14v-37.8c0-21.56-14.14-35.14-31.64-35.14zm-24.5 67.9c-.7 0-1.26-.56-1.26-1.26v-25.2c0-.7.56-1.26 1.26-1.26h37.24c4.9 0 8.82 3.92 8.82 8.82V60.9c0 4.9-3.92 8.82-8.82 8.82h-37.24zM179.739 63.84c0-.7-.56-1.26-1.26-1.26h-7.28c-.7 0-1.26.56-1.26 1.26 0 3.5-2.8 5.88-6.3 5.88h-39.34c-.7 0-1.26-.56-1.26-1.26V60.9c0-.7.56-1.26 1.26-1.26h11.76c.7 0 1.26.56 1.26 1.26v1.26c0 .7.56 1.26 1.26 1.26h18.9c.7 0 1.26-.56 1.26-1.26v-12.6c0-.7-.56-1.26-1.26-1.26h-18.9c-.7 0-1.26.56-1.26 1.26v1.26c0 .7-.56 1.26-1.26 1.26h-11.76c-.7 0-1.26-.56-1.26-1.26v-7.56c0-.7.56-1.26 1.26-1.26h39.34c3.5 0 6.3 2.38 6.3 5.88 0 .7.56 1.26 1.26 1.26h7.28c.7 0 1.26-.56 1.26-1.26v-7.14c0-13.44 3.36-16.1 3.36-21.56 0-7.28-5.6-13.16-12.88-13.16-4.2 0-7.84 1.96-10.22 5.04-.98 1.26-1.26 2.8-1.68 2.8-.42 0-.98-1.54-1.68-2.8-1.96-3.5-7.56-10.92-18.48-10.92-10.92 0-16.52 7.42-18.48 10.92-.7 1.26-1.26 2.8-1.68 2.8-.42 0-.7-1.54-1.68-2.8-2.38-3.08-6.02-5.04-10.22-5.04-7.28 0-12.88 5.88-12.88 13.16 0 5.46 3.36 8.12 3.36 21.56 0 .7.56 1.26 1.26 1.26h13.86c.7 0 1.26.56 1.26 1.26v25.2c0 .7-.56 1.26-1.26 1.26h-13.86c-.7 0-1.26.56-1.26 1.26 0 13.44-3.36 16.1-3.36 21.56 0 7.28 5.6 13.16 12.88 13.16 4.2 0 7.84-1.96 10.22-5.04.98-1.26 1.26-2.8 1.68-2.8.42 0 .98 1.54 1.68 2.8 1.96 3.5 7.56 10.92 18.48 10.92 10.92 0 16.52-7.42 18.48-10.92.7-1.26 1.26-2.8 1.68-2.8.42 0 .7 1.54 1.68 2.8 2.38 3.08 6.02 5.04 10.22 5.04 7.28 0 12.88-5.88 12.88-13.16 0-5.46-3.36-8.12-3.36-21.56v-7.14zM258.916 69.16c0-28-47.04-8.68-47.04-23.38 0-2.1 1.68-3.78 3.78-3.78h25.06c3.5 0 6.3 2.38 6.3 5.88 0 .7.56 1.26 1.26 1.26h7.28c.7 0 1.26-.56 1.26-1.26V43.4c0-13.44 3.36-16.1 3.36-21.56 0-7.28-5.6-13.16-12.88-13.16-2.1 0-4.06.56-5.88 1.4-.28.14-.84.42-1.12.42-.28 0-.42-.42-.56-.84-1.96-5.74-7.98-9.66-14.42-9.66-6.44 0-12.46 3.92-14.42 9.66-.14.42-.28.84-.56.84s-.84-.28-1.12-.42c-1.82-.84-3.78-1.4-5.88-1.4-7.28 0-12.88 5.88-12.88 13.16 0 5.46 2.52 6.02 2.52 19.46 0 31.08 47.04 10.5 47.04 24.64 0 2.1-1.68 3.78-3.78 3.78h-27.58c-3.5 0-6.3-2.38-6.3-5.88 0-.7-.56-1.26-1.26-1.26h-7.28c-.7 0-1.26.56-1.26 1.26v2.8c0 13.44-3.36 16.1-3.36 21.56 0 7.28 5.6 13.16 12.88 13.16 2.1 0 4.06-.56 5.88-1.4.28-.14.84-.42 1.12-.42.28 0 .42.42.56.84 1.96 5.88 7.14 11.62 16.1 11.62s14.14-5.74 16.1-11.62c.14-.42.28-.84.56-.84s.84.28 1.12.42c1.82.84 3.78 1.4 5.88 1.4 7.28 0 12.88-5.88 12.88-13.16 0-5.46-3.36-5.6-3.36-19.04zM312.065 69.72h-13.86c-.7 0-1.26-.56-1.26-1.26v-25.2c0-.7.56-1.26 1.26-1.26h13.86c.7 0 1.261-.56 1.261-1.26 0-13.44 3.359-16.1 3.359-21.56 0-7.28-5.6-13.16-12.88-13.16-4.2 0-7.84 1.96-10.22 5.04-.98 1.26-1.26 2.8-1.68 2.8-.42 0-.7-1.54-1.68-2.8-2.38-3.08-6.02-5.04-10.22-5.04-7.28 0-12.88 5.88-12.88 13.16 0 5.46 3.36 8.12 3.36 21.56 0 .7.56 1.26 1.26 1.26h13.86c.7 0 1.26.56 1.26 1.26v25.2c0 .7-.56 1.26-1.26 1.26h-13.86c-.7 0-1.26.56-1.26 1.26 0 13.44-3.36 16.1-3.36 21.56 0 7.28 5.6 13.16 12.88 13.16 4.2 0 7.84-1.96 10.22-5.04.98-1.26 1.26-2.8 1.68-2.8.42 0 .7 1.54 1.68 2.8 2.38 3.08 6.02 5.04 10.22 5.04 7.28 0 12.88-5.88 12.88-13.16 0-5.46-3.359-8.12-3.359-21.56 0-.7-.561-1.26-1.261-1.26zM396.833 54.74c0-.7-.56-1.26-1.26-1.26h-23.66c-.7 0-1.26.56-1.26 1.26v5.04c0 .7.56 1.26 1.26 1.26h13.86c.7 0 1.26.56 1.26 1.26v1.82c0 3.5-2.8 5.88-6.3 5.88h-34.3c-6.16 0-11.2-5.04-11.2-11.2v-5.88c0-6.16 5.04-11.2 11.2-11.2h34.3c3.5 0 6.3 2.38 6.3 5.88 0 .7.56 1.26 1.26 1.26h7.28c.7 0 1.26-.56 1.26-1.26v-4.48c0-13.44 3.36-16.1 3.36-21.56 0-7.28-5.6-13.16-12.88-13.16-2.38 0-4.9.7-6.58 1.82-.42.28-.98.7-1.26.7-.42 0-.56-.56-.84-1.12-3.08-6.02-9.94-9.8-17.22-9.8-7.28 0-14.14 3.78-17.22 9.8-.28.56-.42 1.12-.84 1.12-.28 0-.84-.42-1.26-.7-1.68-1.12-4.2-1.82-6.58-1.82-7.28 0-12.88 5.88-12.88 13.16 0 5.46 3.36 8.12 3.36 21.56v25.76c0 13.44-3.36 16.1-3.36 21.56 0 7.28 5.6 13.16 12.88 13.16 2.38 0 4.9-.7 6.58-1.82.42-.28.98-.7 1.26-.7.42 0 .56.56.84 1.12 3.08 6.16 9.94 9.8 17.22 9.8 7.28 0 14.14-3.64 17.22-9.8.28-.56.42-1.12.84-1.12.28 0 .84.42 1.26.7 1.68 1.12 4.2 1.82 6.58 1.82 7.28 0 12.88-5.88 12.88-13.16 0-5.46-3.36-8.12-3.36-21.56V54.74zM495.632 6.02c-4.2 0-7.84 1.96-10.22 5.04-.98 1.26-1.26 2.8-1.68 2.8-.42 0-.7-1.54-1.68-2.8-2.38-3.08-6.02-5.04-10.22-5.04-7.28 0-12.88 5.88-12.88 13.16 0 5.46 3.36 8.12 3.36 21.56 0 .7.56 1.26 1.26 1.26h13.86c.7 0 1.26.56 1.26 1.26v25.2c0 .7-.56 1.26-1.26 1.26h-7.84c-1.12 0-1.68-.56-1.68-.56l-17.92-25.2s-.56-.84-.56-1.4c0-.28.14-.56.84-.56h.7c.7 0 1.26-.56 1.26-1.26 0-13.44 3.36-16.1 3.36-21.56 0-7.28-5.6-13.16-12.88-13.16-4.2 0-7.84 1.96-10.22 5.04-.98 1.26-1.26 2.8-1.68 2.8-.42 0-.7-1.54-1.68-2.8-2.38-3.08-6.02-5.04-10.22-5.04-7.28 0-12.88 5.88-12.88 13.16 0 5.46 3.36 8.12 3.36 21.56 0 .7.56 1.26 1.26 1.26h13.86c.7 0 1.26.56 1.26 1.26v25.2c0 .7-.56 1.26-1.26 1.26h-13.86c-.7 0-1.26.56-1.26 1.26 0 13.44-3.36 16.1-3.36 21.56 0 7.28 5.6 13.16 12.88 13.16 4.2 0 7.84-1.96 10.22-5.04.98-1.26 1.26-2.8 1.68-2.8.42 0 .7 1.54 1.68 2.8 2.38 3.08 6.02 5.04 10.22 5.04 7.28 0 12.88-5.88 12.88-13.16 0-5.46-3.36-8.12-3.36-21.56 0-.7-.56-1.26-1.26-1.26h-13.86c-.7 0-1.26-.56-1.26-1.26V44.1c0-.56.28-.84.56-.84.7 0 1.4 1.12 1.4 1.12l41.86 58.52c.84 1.26 2.38 2.1 4.06 2.1 2.8 0 5.04-2.24 5.04-5.04v-56.7c0-.7.56-1.26 1.26-1.26h13.86c.7 0 1.26-.56 1.26-1.26 0-13.44 3.36-16.1 3.36-21.56 0-7.28-5.6-13.16-12.88-13.16z"/></svg>