<svg xmlns="http://www.w3.org/2000/svg" fill="none" viewBox="0 0 227 99"><path fill="#FF1C31" d="M1.58.72C.88.72.32 1.28.32 1.98v32.76c0 .7.56 1.26 1.26 1.26h13.86c.7 0 1.26.56 1.26 1.26v25.2c0 .56-.56 1.26-1.26 1.26H1.58c-.7 0-1.26.7-1.26 1.26v32.76c0 .7.56 1.26 1.26 1.26h52.36c16.66 0 30.24-13.58 30.24-30.24v-37.8C84.18 14.3 70.6.72 53.94.72H1.58zM74.1 54.9c0 4.76-3.92 8.82-8.82 8.82H28.04c-.7 0-1.26-.7-1.26-1.26v-25.2c0-.7.56-1.26 1.26-1.26h37.24c4.9 0 8.82 3.92 8.82 8.82V54.9zM93.319.72c-.7 0-1.26.56-1.26 1.26v32.76c0 .7.56 1.26 1.26 1.26h13.86c.7 0 1.26.56 1.26 1.26v25.2c0 .7-.56 1.26-1.26 1.26h-13.86c-.7 0-1.26.56-1.26 1.26v32.76c0 .7.56 1.26 1.26 1.26h40.32c.7 0 1.26-.56 1.26-1.26V64.98c0-.7-.56-1.26-1.26-1.26h-13.86c-.7 0-1.26-.56-1.26-1.26v-25.2c0-.7.56-1.26 1.26-1.26h13.86c.7 0 1.26-.56 1.26-1.26V1.98c0-.7-.56-1.26-1.26-1.26h-40.32zM144.041.72c-.7 0-1.26.56-1.26 1.26v32.76c0 .7.56 1.26 1.26 1.26h13.86c.7 0 1.26.56 1.26 1.26v25.2c0 .56-.56 1.26-1.26 1.26h-13.86c-.7 0-1.26.7-1.26 1.26v32.76c0 .7.56 1.26 1.26 1.26h52.36c16.66 0 30.24-13.58 30.24-30.24v-37.8c0-16.66-13.58-30.24-30.24-30.24h-52.36zm72.52 54.18c0 4.76-3.92 8.82-8.82 8.82h-37.24c-.7 0-1.26-.7-1.26-1.26v-25.2c0-.7.56-1.26 1.26-1.26h37.24c4.9 0 8.82 3.92 8.82 8.82V54.9z"/></svg>