<svg xmlns="http://www.w3.org/2000/svg" fill="none" viewBox="0 0 235 101"><path fill="#FF1C31" d="M53.82.74h-1.54c-12.74 0-16.8 6.86-21.7 6.86-4.9 0-3.36-4.06-6.16-4.06-2.8 0-1.26 4.06-6.16 4.06S10.14.74 1.74.74C1.46.74.48.74.48 2S3 23.28 3 35.74c0 .7.56 1.26 1.26 1.26h13.86c.7 0 1.26.56 1.26 1.26v25.2c0 .7-.56 1.26-1.26 1.26H4.26c-.7 0-1.26.56-1.26 1.26C3 78.44.48 98.46.48 99.72c0 1.26.98 1.26 1.26 1.26 8.4 0 11.62-6.86 16.52-6.86s3.36 4.06 6.16 4.06c2.8 0 1.26-4.06 6.16-4.06s8.96 6.86 21.7 6.86h1.54c18.48 0 33.04-14.56 33.04-31.22v-37.8C86.86 15.3 72.3.74 53.82.74zM76.78 55.9c0 4.9-4.06 8.82-8.82 8.82H30.72c-.7 0-1.26-.56-1.26-1.26v-25.2c0-.7.56-1.26 1.26-1.26h37.24c4.9 0 8.82 3.92 8.82 8.82V55.9zM137.685 64.72h-13.86c-.7 0-1.26-.56-1.26-1.26v-25.2c0-.7.56-1.26 1.26-1.26h13.86c.7 0 1.26-.56 1.26-1.26 0-12.46 2.52-32.48 2.52-33.74 0-1.26-1.12-1.26-1.26-1.26-8.12 0-11.62 6.86-16.52 6.86s-3.36-4.06-6.16-4.06c-2.8 0-1.26 4.06-6.16 4.06S103.245.74 94.845.74c-.28 0-1.26 0-1.26 1.26s2.52 21.28 2.52 33.74c0 .7.56 1.26 1.26 1.26h13.86c.7 0 1.26.56 1.26 1.26v25.2c0 .7-.56 1.26-1.26 1.26h-13.86c-.7 0-1.26.56-1.26 1.26 0 12.46-2.52 32.48-2.52 33.74 0 1.26.98 1.26 1.26 1.26 8.12 0 11.62-6.86 16.52-6.86s3.36 4.06 6.16 4.06c2.8 0 1.26-4.06 6.16-4.06s8.12 6.86 16.52 6.86c.14 0 1.26 0 1.26-1.26s-2.52-21.28-2.52-33.74c0-.7-.56-1.26-1.26-1.26zM201.476.74h-1.54c-12.74 0-16.8 6.86-21.7 6.86-4.9 0-3.36-4.06-6.16-4.06-2.8 0-1.26 4.06-6.16 4.06s-8.12-6.86-16.52-6.86c-.28 0-1.26 0-1.26 1.26s2.52 21.28 2.52 33.74c0 .7.56 1.26 1.26 1.26h13.86c.7 0 1.26.56 1.26 1.26v25.2c0 .7-.56 1.26-1.26 1.26h-13.86c-.7 0-1.26.56-1.26 1.26 0 12.46-2.52 32.48-2.52 33.74 0 1.26.98 1.26 1.26 1.26 8.4 0 11.62-6.86 16.52-6.86s3.36 4.06 6.16 4.06c2.8 0 1.26-4.06 6.16-4.06s8.96 6.86 21.7 6.86h1.54c18.48 0 33.04-14.56 33.04-31.22v-37.8c0-16.66-14.56-31.22-33.04-31.22zm22.96 55.16c0 4.9-4.06 8.82-8.82 8.82h-37.24c-.7 0-1.26-.56-1.26-1.26v-25.2c0-.7.56-1.26 1.26-1.26h37.24c4.9 0 8.82 3.92 8.82 8.82V55.9z"/></svg>