<svg xmlns="http://www.w3.org/2000/svg" fill="none" viewBox="0 0 235 104"><path fill="#FF1C31" d="M85.316 38.98c0-12.46 2.38-25.2 2.38-26.46 0-1.26-1.12-1.26-1.26-1.26-4.9 0-10.78-3.08-10.78-9.8 0-1.26-1.12-1.26-1.26-1.26-2.94 0-14.14 1.54-31.5 1.54-17.22 0-28.42-1.54-31.36-1.54-.14 0-1.26 0-1.26 1.26 0 4.48-4.2 7.56-8.82 7.56-.14 0-1.26 0-1.26 1.26S2.716 24 2.716 36.46c0 .7.56 1.26 1.26 1.26h13.86c.7 0 1.26.56 1.26 1.26v25.76c0 .7-.56 1.26-1.26 1.26H3.976c-.7 0-1.26.56-1.26 1.26 0 12.46-2.52 24.92-2.52 26.18 0 1.26 1.12 1.26 1.26 1.26 4.62 0 8.82 3.08 8.82 7.56 0 1.26 1.12 1.26 1.26 1.26 2.94 0 14.14-1.54 31.36-1.54 17.36 0 28.56 1.54 31.5 1.54.14 0 1.26 0 1.26-1.26 0-6.72 5.88-9.8 10.78-9.8.14 0 1.26 0 1.26-1.26s-2.38-14-2.38-26.46V38.98zM75.236 54.8c0 6.16-5.04 11.2-11.2 11.2h-33.6c-.7 0-1.26-.56-1.26-1.26V38.98c0-.7.56-1.26 1.26-1.26h33.6c6.16 0 11.2 5.04 11.2 11.2v5.88zM137.675 65.72h-13.86c-.7 0-1.26-.56-1.26-1.26v-25.2c0-.56.42-1.12.98-1.26h14.14c.7 0 1.26-.56 1.26-1.26 0-12.46 2.52-25.2 2.52-26.46 0-1.26-1.12-1.26-1.26-1.26-4.62 0-8.82-3.08-8.82-7.56 0-1.26-1.12-1.26-1.26-1.26-2.94 0-6.86 1.26-12.6 1.26-5.74 0-9.66-1.26-12.6-1.26-.14 0-1.26 0-1.26 1.26 0 4.48-4.2 7.56-8.82 7.56-.14 0-1.26 0-1.26 1.26s2.52 14 2.52 26.46c0 .7.56 1.26 1.26 1.26h14.14c.56.14.98.7.98 1.26v25.2c0 .7-.56 1.26-1.26 1.26h-13.86c-.7 0-1.26.56-1.26 1.26 0 12.46-2.52 25.2-2.52 26.46 0 1.26 1.12 1.26 1.26 1.26 4.62 0 8.82 3.08 8.82 7.56 0 1.26 1.12 1.26 1.26 1.26 2.94 0 6.86-1.26 12.6-1.26 5.74 0 9.66 1.26 12.6 1.26.14 0 1.26 0 1.26-1.26 0-4.48 4.2-7.56 8.82-7.56.14 0 1.26 0 1.26-1.26s-2.52-14-2.52-26.46c0-.7-.56-1.26-1.26-1.26zM232.426 38.98c0-12.46 2.38-25.2 2.38-26.46 0-1.26-1.12-1.26-1.26-1.26-4.9 0-10.78-3.08-10.78-9.8 0-1.26-1.12-1.26-1.26-1.26-2.94 0-14.14 1.54-31.5 1.54-17.22 0-28.42-1.54-31.36-1.54-.14 0-1.26 0-1.26 1.26 0 4.48-4.2 7.56-8.82 7.56-.14 0-1.26 0-1.26 1.26s2.52 13.72 2.52 26.18c0 .7.56 1.26 1.26 1.26h13.86c.7 0 1.26.56 1.26 1.26v25.76c0 .7-.56 1.26-1.26 1.26h-13.86c-.7 0-1.26.56-1.26 1.26 0 12.46-2.52 24.92-2.52 26.18 0 1.26 1.12 1.26 1.26 1.26 4.62 0 8.82 3.08 8.82 7.56 0 1.26 1.12 1.26 1.26 1.26 2.94 0 14.14-1.54 31.36-1.54 17.36 0 28.56 1.54 31.5 1.54.14 0 1.26 0 1.26-1.26 0-6.72 5.88-9.8 10.78-9.8.14 0 1.26 0 1.26-1.26s-2.38-14-2.38-26.46V38.98zm-10.08 15.82c0 6.16-5.04 11.2-11.2 11.2h-33.6c-.7 0-1.26-.56-1.26-1.26V38.98c0-.7.56-1.26 1.26-1.26h33.6c6.16 0 11.2 5.04 11.2 11.2v5.88z"/></svg>