<svg xmlns="http://www.w3.org/2000/svg" fill="none" viewBox="0 0 239 105"><path fill="#FF1C31" d="M86.382 35.92c.28-11.76 2.52-22.68 2.52-23.94 0-1.26-.7-1.96-1.96-1.96-28.14 0-23.52-9.24-42.14-9.24s-14 9.24-42.14 9.24c-1.26 0-1.96.7-1.96 1.96s2.52 13.3 2.52 25.76c0 .7.56 1.26 1.26 1.26h13.86c.7 0 1.26.56 1.26 1.26v25.2c0 .7-.56 1.26-1.26 1.26H4.482c-.7 0-1.26.56-1.26 1.26 0 12.46-2.52 24.5-2.52 25.76 0 1.26.7 1.96 1.96 1.96 28.14 0 23.52 9.24 42.14 9.24s14-9.24 42.14-9.24c1.26 0 1.96-.7 1.96-1.96s-2.24-12.18-2.52-23.94V35.92zm-10.08 11.9V57.9c0 4.9-3.92 8.82-8.82 8.82h-36.54c-.7 0-1.26-.56-1.26-1.26v-25.2c0-.7.56-1.26 1.26-1.26h36.54c4.9 0 8.82 3.92 8.82 8.82zM124.565 40.26c0-.7.56-1.26 1.26-1.26h13.86c.7 0 1.26-.56 1.26-1.26 0-12.46 2.52-24.5 2.52-25.76 0-1.26-.7-1.96-1.96-1.96-6.16 0-13.44-7.28-21.98-7.28-8.54 0-15.82 7.28-21.98 7.28-1.26 0-1.96.7-1.96 1.96s2.52 13.3 2.52 25.76c0 .7.56 1.26 1.26 1.26h13.86c.7 0 1.26.56 1.26 1.26v25.2c0 .7-.56 1.26-1.26 1.26h-13.86c-.7 0-1.26.56-1.26 1.26 0 12.46-2.52 24.5-2.52 25.76 0 1.26.7 1.96 1.96 1.96 6.16 0 13.44 7.28 21.98 7.28 8.54 0 15.82-7.28 21.98-7.28 1.26 0 1.96-.7 1.96-1.96s-2.52-13.3-2.52-25.76c0-.7-.56-1.26-1.26-1.26h-13.86c-.7 0-1.26-.56-1.26-1.26v-25.2zM235.816 35.92c.28-11.76 2.52-22.68 2.52-23.94 0-1.26-.7-1.96-1.96-1.96-28.14 0-23.52-9.24-42.14-9.24s-14 9.24-42.14 9.24c-1.26 0-1.96.7-1.96 1.96s2.52 13.3 2.52 25.76c0 .7.56 1.26 1.26 1.26h13.86c.7 0 1.26.56 1.26 1.26v25.2c0 .7-.56 1.26-1.26 1.26h-13.86c-.7 0-1.26.56-1.26 1.26 0 12.46-2.52 24.5-2.52 25.76 0 1.26.7 1.96 1.96 1.96 28.14 0 23.52 9.24 42.14 9.24s14-9.24 42.14-9.24c1.26 0 1.96-.7 1.96-1.96s-2.24-12.18-2.52-23.94V35.92zm-10.08 11.9V57.9c0 4.9-3.92 8.82-8.82 8.82h-36.54c-.7 0-1.26-.56-1.26-1.26v-25.2c0-.7.56-1.26 1.26-1.26h36.54c4.9 0 8.82 3.92 8.82 8.82z"/></svg>