<svg xmlns="http://www.w3.org/2000/svg" fill="none" viewBox="0 0 227 124"><path fill="#FF1C31" d="M53.94 12.72h-4.48c-.98 0-1.26-1.4-1.26-1.4C46.52 4.88 40.5.12 33.5.12c-7 0-13.02 4.76-14.7 11.2 0 0-.28 1.4-1.26 1.4H1.58c-.7 0-1.26.56-1.26 1.26v32.76c0 .7.56 1.26 1.26 1.26h13.86c.7 0 1.26.56 1.26 1.26v25.2c0 .7-.56 1.26-1.26 1.26H1.58c-.7 0-1.26.56-1.26 1.26v32.76c0 .7.56 1.26 1.26 1.26h15.96c.98 0 1.26 1.4 1.26 1.4 1.68 6.44 7.7 11.2 14.7 11.2 7 0 13.02-4.76 14.7-11.2 0 0 .28-1.4 1.26-1.4h4.48c16.66 0 30.24-13.58 30.24-30.24v-37.8c0-16.66-13.58-30.24-30.24-30.24zM74.1 66.9c0 4.9-3.92 8.82-8.82 8.82H28.04c-.7 0-1.26-.56-1.26-1.26v-25.2c0-.7.56-1.26 1.26-1.26h37.24c4.9 0 8.82 3.92 8.82 8.82V66.9zM92.059 109.74c0 .7.56 1.26 1.26 1.26h4.2c.98 0 1.26 1.4 1.26 1.4 1.68 6.44 7.7 11.2 14.7 11.2 7 0 13.02-4.76 14.7-11.2 0 0 .28-1.4 1.26-1.4h4.2c.7 0 1.26-.56 1.26-1.26V76.98c0-.7-.56-1.26-1.26-1.26h-13.86c-.7 0-1.26-.56-1.26-1.26v-25.2c0-.7.56-1.26 1.26-1.26h13.86c.7 0 1.26-.56 1.26-1.26V13.98c0-.7-.56-1.26-1.26-1.26h-4.2c-.98 0-1.26-1.4-1.26-1.4-1.68-6.44-7.7-11.2-14.7-11.2-7 0-13.02 4.76-14.7 11.2 0 0-.28 1.4-1.26 1.4h-4.2c-.7 0-1.26.56-1.26 1.26v32.76c0 .7.56 1.26 1.26 1.26h13.86c.7 0 1.26.56 1.26 1.26v25.2c0 .7-.56 1.26-1.26 1.26h-13.86c-.7 0-1.26.56-1.26 1.26v32.76zM196.401 12.72h-4.48c-.98 0-1.26-1.4-1.26-1.4-1.68-6.44-7.7-11.2-14.7-11.2-7 0-13.02 4.76-14.7 11.2 0 0-.28 1.4-1.26 1.4h-15.96c-.7 0-1.26.56-1.26 1.26v32.76c0 .7.56 1.26 1.26 1.26h13.86c.7 0 1.26.56 1.26 1.26v25.2c0 .7-.56 1.26-1.26 1.26h-13.86c-.7 0-1.26.56-1.26 1.26v32.76c0 .7.56 1.26 1.26 1.26h15.96c.98 0 1.26 1.4 1.26 1.4 1.68 6.44 7.7 11.2 14.7 11.2 7 0 13.02-4.76 14.7-11.2 0 0 .28-1.4 1.26-1.4h4.48c16.66 0 30.24-13.58 30.24-30.24v-37.8c0-16.66-13.58-30.24-30.24-30.24zm20.16 54.18c0 4.9-3.92 8.82-8.82 8.82h-37.24c-.7 0-1.26-.56-1.26-1.26v-25.2c0-.7.56-1.26 1.26-1.26h37.24c4.9 0 8.82 3.92 8.82 8.82V66.9z"/></svg>