<svg xmlns="http://www.w3.org/2000/svg" fill="none" viewBox="0 0 365 124"><path fill="#FF1C31" d="M82.301 12.72h-24.36c-.98 0-1.26-1.4-1.26-1.4-1.68-6.44-7.7-11.2-14.7-11.2-7 0-13.02 4.76-14.7 11.2 0 0-.28 1.4-1.26 1.4H1.661c-.7 0-1.26.56-1.26 1.26v44.1c0 .7.56 1.26 1.26 1.26h7.56c.7 0 1.26-.56 1.26-1.26v-1.26c0-4.9 3.92-8.82 8.82-8.82h16.38c.7 0 1.26.56 1.26 1.26v25.2c0 .7-.56 1.26-1.26 1.26h-13.86c-.7 0-1.26.56-1.26 1.26v32.76c0 .7.56 1.26 1.26 1.26h4.2c.98 0 1.26 1.4 1.26 1.4 1.68 6.44 7.7 11.2 14.7 11.2 7 0 13.02-4.76 14.7-11.2 0 0 .28-1.4 1.26-1.4h4.2c.7 0 1.26-.56 1.26-1.26V76.98c0-.7-.56-1.26-1.26-1.26h-13.86c-.7 0-1.26-.56-1.26-1.26v-25.2c0-.7.56-1.26 1.26-1.26h16.38c4.9 0 8.82 3.92 8.82 8.82v1.26c0 .7.56 1.26 1.26 1.26h7.56c.7 0 1.26-.56 1.26-1.26v-44.1c0-.7-.56-1.26-1.26-1.26zM90.786 109.74c0 .7.56 1.26 1.26 1.26h4.2c.98 0 1.26 1.4 1.26 1.4 1.68 6.44 7.7 11.2 14.7 11.2 7 0 13.02-4.76 14.7-11.2 0 0 .28-1.4 1.26-1.4h4.2c.7 0 1.26-.56 1.26-1.26V76.98c0-.7-.56-1.26-1.26-1.26h-13.86c-.7 0-1.26-.56-1.26-1.26V66.9c0-.7.56-1.26 1.26-1.26h40.32c.7 0 1.26.56 1.26 1.26v7.56c0 .7-.56 1.26-1.26 1.26h-13.86c-.7 0-1.26.56-1.26 1.26v32.76c0 .28.14.56.28.84.28.28.56.42.98.42h4.2c.98 0 1.26 1.4 1.26 1.4 1.68 6.44 7.7 11.2 14.7 11.2 7 0 13.02-4.76 14.7-11.2 0 0 .28-1.4 1.26-1.4h4.2c.42 0 .7-.14.98-.42.14-.28.28-.56.28-.84V76.98c0-.28-.14-.7-.42-.84-.14-.28-.56-.42-.84-.42h-13.86c-.7 0-1.26-.56-1.26-1.26v-25.2c0-.7.56-1.26 1.26-1.26h13.86c.7 0 1.26-.56 1.26-1.26V13.98c0-.7-.56-1.26-1.26-1.26h-4.2c-.98 0-1.26-1.4-1.26-1.4-1.68-6.44-7.7-11.2-14.7-11.2-7 0-13.02 4.76-14.7 11.2 0 0-.28 1.4-1.26 1.4h-4.2c-.7 0-1.26.56-1.26 1.26v32.76c0 .7.56 1.26 1.26 1.26h13.86c.7 0 1.26.56 1.26 1.26v7.56c0 .7-.56 1.26-1.26 1.26h-40.32c-.7 0-1.26-.56-1.26-1.26v-7.56c0-.7.56-1.26 1.26-1.26h13.86c.7 0 1.26-.56 1.26-1.26V13.98c0-.7-.56-1.26-1.26-1.26h-4.2c-.98 0-1.26-1.4-1.26-1.4-1.68-6.44-7.7-11.2-14.7-11.2-7 0-13.02 4.76-14.7 11.2 0 0-.28 1.4-1.26 1.4h-4.2c-.7 0-1.26.56-1.26 1.26v32.76c0 .7.56 1.26 1.26 1.26h13.86c.7 0 1.26.56 1.26 1.26v25.2c0 .7-.56 1.26-1.26 1.26h-13.86c-.7 0-1.26.56-1.26 1.26v32.76zM248.458 59.9h-16.24c-.56 0-.84-.28-.84-.56 0-.42.28-.84.28-.84l5.32-8.82c.7-1.12 1.12-1.68 1.82-1.68h2.94c.7 0 1.12.56 1.82 1.68l5.46 8.82s.28.42.28.84c0 .28-.28.56-.84.56zm-54.6 49.84c0 .7.56 1.26 1.26 1.26h4.2c.98 0 1.26 1.4 1.26 1.4 1.68 6.44 7.7 11.2 14.7 11.2 7 0 13.02-4.76 14.7-11.2 0 0 .28-1.4 1.26-1.4h4.2c.7 0 1.26-.56 1.26-1.26V76.98c0-.7-.56-1.26-1.26-1.26h-13.3c-.56 0-.98 0-.98-.28 0-.42.28-.84.28-.84l3.5-5.46c.7-1.12 1.12-1.68 1.82-1.68h27.16c.7 0 1.12.56 1.82 1.68l3.36 5.18s.28.42.28.84c0 .28-.28.56-.84.56h-10.5c-.7 0-1.26.56-1.26 1.26v33.18l.28.42h.14c.14.28.42.42.84.42h4.2c.98 0 1.26 1.4 1.26 1.4 1.68 6.44 7.7 11.2 14.7 11.2 7 0 13.02-4.76 14.7-11.2 0 0 .28-1.4 1.26-1.4h4.2c.7 0 1.26-.56 1.26-1.26V76.98c0-.7-.56-1.26-1.26-1.26h-11.76c-.7 0-1.4 0-2.1-1.12l-16.1-25.2s-.28-.42-.28-.84c0-.28.28-.56.84-.56h2.94c.7 0 1.26-.56 1.26-1.26V13.98c0-.7-.56-1.26-1.26-1.26h-4.2c-.98 0-1.26-1.4-1.26-1.4-1.68-6.44-7.7-11.2-14.7-11.2-7 0-13.02 4.76-14.7 11.2 0 0-.28 1.4-1.26 1.4h-4.2c-.7 0-1.26.56-1.26 1.26v32.76c0 .7.56 1.26 1.26 1.26h4.62c.56 0 .84.28.84.56 0 .42-.28.84-.28.84l-15.68 24.64c-.7 1.12-1.12 1.68-1.82 1.68h-14.14c-.7 0-1.26.56-1.26 1.26v32.76z"/><path fill="#FF1C31" d="M363.395 12.72h-24.36c-.98 0-1.26-1.4-1.26-1.4-1.68-6.44-7.7-11.2-14.7-11.2-7 0-13.02 4.76-14.7 11.2 0 0-.28 1.4-1.26 1.4h-24.36c-.7 0-1.26.56-1.26 1.26v44.1c0 .7.56 1.26 1.26 1.26h7.56c.7 0 1.26-.56 1.26-1.26v-1.26c0-4.9 3.92-8.82 8.82-8.82h16.38c.7 0 1.26.56 1.26 1.26v25.2c0 .7-.56 1.26-1.26 1.26h-13.86c-.7 0-1.26.56-1.26 1.26v32.76c0 .7.56 1.26 1.26 1.26h4.2c.98 0 1.26 1.4 1.26 1.4 1.68 6.44 7.7 11.2 14.7 11.2 7 0 13.02-4.76 14.7-11.2 0 0 .28-1.4 1.26-1.4h4.2c.7 0 1.26-.56 1.26-1.26V76.98c0-.7-.56-1.26-1.26-1.26h-13.86c-.7 0-1.26-.56-1.26-1.26v-25.2c0-.7.56-1.26 1.26-1.26h16.38c4.9 0 8.82 3.92 8.82 8.82v1.26c0 .7.56 1.26 1.26 1.26h7.56c.7 0 1.26-.56 1.26-1.26v-44.1c0-.7-.56-1.26-1.26-1.26z"/></svg>