<svg xmlns="http://www.w3.org/2000/svg" fill="none" viewBox="0 0 379 105"><path fill="#FF1C31" d="M88.674 11.28c0-1.26-1.12-1.26-1.26-1.26-4.62 0-8.82-4.06-8.82-8.54 0-1.26-1.12-1.26-1.26-1.26-4.48 0-15.54 2.38-32.76 2.38S16.294.22 11.814.22c-.14 0-1.26 0-1.26 1.26 0 4.48-4.2 8.54-8.82 8.54-.14 0-1.26 0-1.26 1.26s2.52 14 2.52 26.46v11.34c0 .7.56 1.26 1.26 1.26h7.56c.7 0 1.26-.56 1.26-1.26v-1.26c0-4.9 3.92-8.82 8.82-8.82h16.38c.7 0 1.26.56 1.26 1.26v25.2c0 .7-.56 1.26-1.26 1.26h-13.86c-.7 0-1.26.56-1.26 1.26 0 12.46-2.52 25.2-2.52 26.46 0 1.26 1.12 1.26 1.26 1.26 4.62 0 8.82 3.08 8.82 7.56 0 1.26 1.12 1.26 1.26 1.26 2.94 0 6.86-1.26 12.6-1.26 5.74 0 9.66 1.26 12.6 1.26.14 0 1.26 0 1.26-1.26 0-4.48 4.2-7.56 8.82-7.56.14 0 1.26 0 1.26-1.26s-2.52-14-2.52-26.46c0-.7-.56-1.26-1.26-1.26h-13.86c-.7 0-1.26-.56-1.26-1.26v-25.2c0-.7.56-1.26 1.26-1.26h16.38c4.9 0 8.82 3.92 8.82 8.82v1.26c0 .7.56 1.26 1.26 1.26h7.56c.7 0 1.26-.56 1.26-1.26V37.74c0-12.46 2.52-25.2 2.52-26.46zM191.022 66.72h-13.86c-.7 0-1.26-.56-1.26-1.26v-25.2c0-.7.56-1.26 1.26-1.26h13.86c.7 0 1.26-.56 1.26-1.26 0-12.46 2.52-25.2 2.52-26.46 0-1.26-1.12-1.26-1.26-1.26-4.62 0-8.82-3.08-8.82-7.56 0-1.26-1.12-1.26-1.26-1.26-2.94 0-6.86 1.26-12.6 1.26-5.74 0-9.66-1.26-12.6-1.26-.14 0-1.26 0-1.26 1.26 0 4.48-4.2 7.56-8.82 7.56-.14 0-1.26 0-1.26 1.26s2.52 14 2.52 26.46c0 .7.56 1.26 1.26 1.26h13.86c.7 0 1.26.56 1.26 1.26v7.56c0 .7-.56 1.26-1.26 1.26h-40.32c-.7 0-1.26-.56-1.26-1.26v-7.56c0-.7.56-1.26 1.26-1.26h13.86c.7 0 1.26-.56 1.26-1.26 0-12.46 2.52-25.2 2.52-26.46 0-1.26-1.12-1.26-1.26-1.26-4.62 0-8.82-3.08-8.82-7.56 0-1.26-1.12-1.26-1.26-1.26-2.94 0-6.86 1.26-12.6 1.26-5.74 0-9.66-1.26-12.6-1.26-.14 0-1.26 0-1.26 1.26 0 4.48-4.2 7.56-8.82 7.56-.14 0-1.26 0-1.26 1.26s2.52 14 2.52 26.46c0 .7.56 1.26 1.26 1.26h13.86c.7 0 1.26.56 1.26 1.26v25.2c0 .7-.56 1.26-1.26 1.26h-13.86c-.7 0-1.26.56-1.26 1.26 0 12.46-2.52 25.2-2.52 26.46 0 1.26 1.12 1.26 1.26 1.26 4.62 0 8.82 3.08 8.82 7.56 0 1.26 1.12 1.26 1.26 1.26 2.94 0 6.86-1.26 12.6-1.26 5.74 0 9.66 1.26 12.6 1.26.14 0 1.26 0 1.26-1.26 0-4.48 4.2-7.56 8.82-7.56.14 0 1.26 0 1.26-1.26s-2.52-14-2.52-26.46c0-.7-.56-1.26-1.26-1.26h-13.86c-.7 0-1.26-.56-1.26-1.26V57.9c0-.7.56-1.26 1.26-1.26h40.32c.7 0 1.26.56 1.26 1.26v7.56c0 .7-.56 1.26-1.26 1.26h-13.86c-.7 0-1.26.56-1.26 1.26 0 12.46-2.52 25.2-2.52 26.46 0 1.26 1.12 1.26 1.26 1.26 4.62 0 8.82 3.08 8.82 7.56 0 1.26 1.12 1.26 1.26 1.26 2.94 0 6.86-1.26 12.6-1.26 5.74 0 9.66 1.26 12.6 1.26.14 0 1.26 0 1.26-1.26 0-4.48 4.2-7.56 8.82-7.56.14 0 1.26 0 1.26-1.26s-2.52-14-2.52-26.46c0-.7-.56-1.26-1.26-1.26zM297.953 67.98c0-.7-.56-1.26-1.26-1.26h-12.18c-.7 0-1.4-.56-2.1-1.68l-15.68-24.64s-.28-.42-.28-.84c0-.28.28-.56.84-.56h2.94c.7 0 1.26-.56 1.26-1.26 0-12.46 2.52-25.2 2.52-26.46 0-1.26-1.12-1.26-1.26-1.26-4.62 0-8.82-3.08-8.82-7.56 0-1.26-1.12-1.26-1.26-1.26-2.94 0-6.86 1.26-12.6 1.26-5.74 0-9.66-1.26-12.6-1.26-.14 0-1.26 0-1.26 1.26 0 4.48-4.2 7.56-8.82 7.56-.14 0-1.26 0-1.26 1.26s2.52 14 2.52 26.46c0 .7.56 1.26 1.26 1.26h4.62c.56 0 .84.28.84.56 0 .42-.42.84-.42.84l-15.68 24.64c-.56 1.12-.98 1.68-1.68 1.68h-14.14c-.7 0-1.26.56-1.26 1.26 0 12.46-2.52 25.2-2.52 26.46 0 1.26 1.12 1.26 1.26 1.26 4.62 0 8.82 3.08 8.82 7.56 0 1.26 1.12 1.26 1.26 1.26 2.94 0 6.86-1.26 12.6-1.26 5.74 0 9.66 1.26 12.6 1.26.14 0 1.26 0 1.26-1.26 0-4.48 4.2-7.56 8.82-7.56.14 0 1.26 0 1.26-1.26s-2.52-14-2.52-26.46c0-.7-.56-1.26-1.26-1.26h-13.3c-.56 0-.98 0-.98-.28 0-.42.28-.84.28-.84l3.78-6.02c.7-1.12 1.12-1.12 1.82-1.12h27.02c.7 0 1.12.56 1.82 1.68l3.22 5.18s.28.42.28.84c0 .28-.28.56-.84.56h-10.5c-.7 0-1.26.56-1.26 1.26 0 12.46-2.52 25.2-2.52 26.46 0 1.26 1.12 1.26 1.26 1.26 4.62 0 8.82 3.08 8.82 7.56 0 1.26 1.12 1.26 1.26 1.26 2.94 0 6.86-1.26 12.6-1.26 5.74 0 9.66 1.26 12.6 1.26.14 0 1.26 0 1.26-1.26 0-4.48 4.2-7.56 8.82-7.56.14 0 1.26 0 1.26-1.26s-2.52-14-2.52-26.46zm-41.02-17.08h-16.52c-.56 0-.84-.28-.84-.56 0-.42.28-.84.28-.84l5.46-8.82c.7-1.12 1.12-1.68 1.82-1.68h2.94c.7 0 1.12.56 1.82 1.68l5.6 8.82s.28.42.28.84c0 .28-.28.56-.84.56zM378.517 11.28c0-1.26-1.12-1.26-1.26-1.26-4.62 0-8.82-4.06-8.82-8.54 0-1.26-1.12-1.26-1.26-1.26-4.48 0-15.54 2.38-32.76 2.38S306.137.22 301.657.22c-.14 0-1.26 0-1.26 1.26 0 4.48-4.2 8.54-8.82 8.54-.14 0-1.26 0-1.26 1.26s2.52 14 2.52 26.46v11.34c0 .7.56 1.26 1.26 1.26h7.56c.7 0 1.26-.56 1.26-1.26v-1.26c0-4.9 3.92-8.82 8.82-8.82h16.38c.7 0 1.26.56 1.26 1.26v25.2c0 .7-.56 1.26-1.26 1.26h-13.86c-.7 0-1.26.56-1.26 1.26 0 12.46-2.52 25.2-2.52 26.46 0 1.26 1.12 1.26 1.26 1.26 4.62 0 8.82 3.08 8.82 7.56 0 1.26 1.12 1.26 1.26 1.26 2.94 0 6.86-1.26 12.6-1.26 5.74 0 9.66 1.26 12.6 1.26.14 0 1.26 0 1.26-1.26 0-4.48 4.2-7.56 8.82-7.56.14 0 1.26 0 1.26-1.26s-2.52-14-2.52-26.46c0-.7-.56-1.26-1.26-1.26h-13.86c-.7 0-1.26-.56-1.26-1.26v-25.2c0-.7.56-1.26 1.26-1.26h16.38c4.9 0 8.82 3.92 8.82 8.82v1.26c0 .7.56 1.26 1.26 1.26h7.56c.7 0 1.26-.56 1.26-1.26V37.74c0-12.46 2.52-25.2 2.52-26.46z"/></svg>