<svg xmlns="http://www.w3.org/2000/svg" fill="none" viewBox="0 0 376 115"><path fill="#FF1C31" d="M86.714 11.52c-6.16 0-14.56 1.68-19.88 4.9-.7.42-1.54.98-1.82.98s-.42-.42-.42-.42c-1.82-9.52-10.22-16.8-20.3-16.8s-18.48 7.28-20.3 16.8c0 0-.14.42-.42.42-.28 0-1.12-.56-1.82-.98-5.32-3.22-13.72-4.9-19.88-4.9-.7 0-1.26.56-1.26 1.26 0 1.82 2.1 4.62 2.1 29.96v11.34c0 .7.56 1.26 1.26 1.26h7.56c.7 0 1.26-.56 1.26-1.26v-1.26c0-4.9 3.92-8.82 8.82-8.82h16.38c.7 0 1.26.56 1.26 1.26v25.2c0 .7-.56 1.26-1.26 1.26h-13.86c-.7 0-1.26.56-1.26 1.26 0 25.34-2.1 28.14-2.1 29.96 0 .7.56 1.26 1.26 1.26 2.8 0 5.18-.56 7.98-1.96.28-.14.7-.42.98-.42s.42.28.42.42c0 7 5.88 12.6 12.88 12.6 7 0 12.88-5.6 12.88-12.6 0-.14.14-.42.42-.42.28 0 .7.28.98.42 2.8 1.4 5.18 1.96 7.98 1.96.7 0 1.26-.56 1.26-1.26 0-1.82-2.1-4.62-2.1-29.96 0-.7-.56-1.26-1.26-1.26h-13.86c-.7 0-1.26-.56-1.26-1.26v-25.2c0-.7.56-1.26 1.26-1.26h16.38c4.9 0 8.82 3.92 8.82 8.82v1.26c0 .7.56 1.26 1.26 1.26h7.56c.7 0 1.26-.56 1.26-1.26V42.74c0-25.34 2.1-28.14 2.1-29.96 0-.7-.56-1.26-1.26-1.26zM189.923 71.72h-13.86c-.7 0-1.26-.56-1.26-1.26v-25.2c0-.7.56-1.26 1.26-1.26h13.86c.7 0 1.26-.56 1.26-1.26 0-25.34 2.1-28.14 2.1-29.96 0-.7-.56-1.26-1.26-1.26-2.8 0-5.18.56-7.98 1.96-.28.14-.7.42-.98.42s-.42-.28-.42-.42c0-7-5.88-12.6-12.88-12.6-7 0-12.88 5.6-12.88 12.6 0 .14-.14.42-.42.42-.28 0-.7-.28-.98-.42-2.8-1.4-5.18-1.96-7.98-1.96-.7 0-1.26.56-1.26 1.26 0 1.82 2.1 4.62 2.1 29.96 0 .7.56 1.26 1.26 1.26h13.86c.7 0 1.26.56 1.26 1.26v7.56c0 .7-.56 1.26-1.26 1.26h-40.32c-.7 0-1.26-.56-1.26-1.26v-7.56c0-.7.56-1.26 1.26-1.26h13.86c.7 0 1.26-.56 1.26-1.26 0-25.34 2.1-28.14 2.1-29.96 0-.7-.56-1.26-1.26-1.26-2.8 0-5.18.56-7.98 1.96-.28.14-.7.42-.98.42s-.42-.28-.42-.42c0-7-5.88-12.6-12.88-12.6-7 0-12.88 5.6-12.88 12.6 0 .14-.14.42-.42.42-.28 0-.7-.28-.98-.42-2.8-1.4-5.18-1.96-7.98-1.96-.7 0-1.26.56-1.26 1.26 0 1.82 2.1 4.62 2.1 29.96 0 .7.56 1.26 1.26 1.26h13.86c.7 0 1.26.56 1.26 1.26v25.2c0 .7-.56 1.26-1.26 1.26h-13.86c-.7 0-1.26.56-1.26 1.26 0 25.34-2.1 28.14-2.1 29.96 0 .7.56 1.26 1.26 1.26 2.8 0 5.18-.56 7.98-1.96.28-.14.7-.42.98-.42s.42.28.42.42c0 7 5.88 12.6 12.88 12.6 7 0 12.88-5.6 12.88-12.6 0-.14.14-.42.42-.42.28 0 .7.28.98.42 2.8 1.4 5.18 1.96 7.98 1.96.7 0 1.26-.56 1.26-1.26 0-1.82-2.1-4.62-2.1-29.96 0-.7-.56-1.26-1.26-1.26h-13.86c-.7 0-1.26-.56-1.26-1.26V62.9c0-.7.56-1.26 1.26-1.26h40.32c.7 0 1.26.56 1.26 1.26v7.56c0 .7-.56 1.26-1.26 1.26h-13.86c-.7 0-1.26.56-1.26 1.26 0 25.34-2.1 28.14-2.1 29.96 0 .7.56 1.26 1.26 1.26 2.8 0 5.18-.56 7.98-1.96.28-.14.7-.42.98-.42s.42.28.42.42c0 7 5.88 12.6 12.88 12.6 7 0 12.88-5.6 12.88-12.6 0-.14.14-.42.42-.42.28 0 .7.28.98.42 2.8 1.4 5.18 1.96 7.98 1.96.7 0 1.26-.56 1.26-1.26 0-1.82-2.1-4.62-2.1-29.96 0-.7-.56-1.26-1.26-1.26zM296.033 72.98c0-.7-.56-1.26-1.26-1.26h-11.76c-.7 0-1.82-.56-2.52-1.68l-15.68-24.64s-.28-.42-.28-.84c0-.28.28-.56.84-.56h2.94c.7 0 1.26-.56 1.26-1.26 0-25.34 2.1-28.14 2.1-29.96 0-.7-.56-1.26-1.26-1.26-2.8 0-5.18.56-7.98 1.96-.28.14-.7.42-.98.42s-.42-.28-.42-.42c0-7-5.88-12.6-12.88-12.6-7 0-12.88 5.6-12.88 12.6 0 .14-.14.42-.42.42-.28 0-.7-.28-.98-.42-2.8-1.4-5.18-1.96-7.98-1.96-.7 0-1.26.56-1.26 1.26 0 1.82 2.1 4.62 2.1 29.96 0 .7.56 1.26 1.26 1.26h4.62c.56 0 .84.28.84.56 0 .42-.28.84-.28.84l-15.68 24.64c-.7 1.12-1.12 1.68-1.82 1.68h-14.14c-.7 0-1.26.56-1.26 1.26 0 25.34-2.1 28.14-2.1 29.96 0 .7.56 1.26 1.26 1.26 2.8 0 5.18-.56 7.98-1.96.28-.14.7-.42.98-.42s.42.28.42.42c0 7 5.88 12.6 12.88 12.6 7 0 12.88-5.6 12.88-12.6 0-.14.14-.42.42-.42.28 0 .7.28.98.42 2.8 1.4 5.18 1.96 7.98 1.96.7 0 1.26-.56 1.26-1.26 0-1.82-2.1-4.62-2.1-29.96 0-.7-.56-1.26-1.26-1.26h-13.3c-.56 0-.98 0-.98-.28 0-.42.28-.84.28-.84l3.36-5.46c.7-1.12 1.12-1.68 1.82-1.68h27.44c.7 0 1.12.56 1.82 1.68l3.22 5.18s.28.42.28.84c0 .28-.28.56-.84.56h-10.5c-.7 0-1.26.56-1.26 1.26 0 25.34-2.1 28.14-2.1 29.96 0 .7.56 1.26 1.26 1.26 2.8 0 5.18-.56 7.98-1.96.28-.14.7-.42.98-.42s.42.28.42.42c0 7 5.88 12.6 12.88 12.6 7 0 12.88-5.6 12.88-12.6 0-.14.14-.42.42-.42.28 0 .7.28.98.42 2.8 1.4 5.18 1.96 7.98 1.96.7 0 1.26-.56 1.26-1.26 0-1.82-2.1-4.62-2.1-29.96zm-41.02-17.08h-16.52c-.56 0-.84-.28-.84-.56 0-.42.28-.84.28-.84l5.46-8.82c.7-1.12 1.12-1.68 1.82-1.68h2.94c.7 0 1.12.56 1.82 1.68l5.6 8.82s.28.42.28.84c0 .28-.28.56-.84.56zM374.097 11.52c-6.16 0-14.56 1.68-19.88 4.9-.7.42-1.54.98-1.82.98s-.42-.42-.42-.42c-1.82-9.52-10.22-16.8-20.3-16.8s-18.48 7.28-20.3 16.8c0 0-.14.42-.42.42-.28 0-1.12-.56-1.82-.98-5.32-3.22-13.72-4.9-19.88-4.9-.7 0-1.26.56-1.26 1.26 0 1.82 2.1 4.62 2.1 29.96v11.34c0 .7.56 1.26 1.26 1.26h7.56c.7 0 1.26-.56 1.26-1.26v-1.26c0-4.9 3.92-8.82 8.82-8.82h16.38c.7 0 1.26.56 1.26 1.26v25.2c0 .7-.56 1.26-1.26 1.26h-13.86c-.7 0-1.26.56-1.26 1.26 0 25.34-2.1 28.14-2.1 29.96 0 .7.56 1.26 1.26 1.26 2.8 0 5.18-.56 7.98-1.96.28-.14.7-.42.98-.42s.42.28.42.42c0 7 5.88 12.6 12.88 12.6 7 0 12.88-5.6 12.88-12.6 0-.14.14-.42.42-.42.28 0 .7.28.98.42 2.8 1.4 5.18 1.96 7.98 1.96.7 0 1.26-.56 1.26-1.26 0-1.82-2.1-4.62-2.1-29.96 0-.7-.56-1.26-1.26-1.26h-13.86c-.7 0-1.26-.56-1.26-1.26v-25.2c0-.7.56-1.26 1.26-1.26h16.38c4.9 0 8.82 3.92 8.82 8.82v1.26c0 .7.56 1.26 1.26 1.26h7.56c.7 0 1.26-.56 1.26-1.26V42.74c0-25.34 2.1-28.14 2.1-29.96 0-.7-.56-1.26-1.26-1.26z"/></svg>