<svg xmlns="http://www.w3.org/2000/svg" fill="none" viewBox="0 0 379 103"><path fill="#FF1C31" d="M44.574.64C26.374.64.894 3.16.894 15.62c0 9.8 2.1 9.66 2.1 22.12v11.34c0 .7.56 1.26 1.26 1.26h7.56c.7 0 1.26-.56 1.26-1.26v-1.26c0-4.9 3.92-8.82 8.82-8.82h16.38c.7 0 1.26.56 1.26 1.26v25.2c0 .7-.56 1.26-1.26 1.26h-13.86c-.7 0-1.26.56-1.26 1.26 0 12.46-2.1 12.18-2.1 21.98s14.98 13.02 23.52 13.02 23.52-3.22 23.52-13.02c0-9.8-2.1-9.52-2.1-21.98 0-.7-.56-1.26-1.26-1.26h-13.86c-.7 0-1.26-.56-1.26-1.26v-25.2c0-.7.56-1.26 1.26-1.26h16.38c4.9 0 8.82 3.92 8.82 8.82v1.26c0 .7.56 1.26 1.26 1.26h7.56c.7 0 1.26-.56 1.26-1.26V37.74c0-12.46 2.1-12.32 2.1-22.12 0-12.46-25.48-14.98-43.68-14.98zM191.022 66.72h-13.86c-.7 0-1.26-.56-1.26-1.26v-25.2c0-.7.56-1.26 1.26-1.26h13.86c.7 0 1.26-.56 1.26-1.26 0-12.46 2.1-12.18 2.1-21.98s-14.98-13.02-23.52-13.02-23.52 3.22-23.52 13.02c0 9.8 2.1 9.52 2.1 21.98 0 .7.56 1.26 1.26 1.26h13.86c.7 0 1.26.56 1.26 1.26v7.56c0 .7-.56 1.26-1.26 1.26h-40.32c-.7 0-1.26-.56-1.26-1.26v-7.56c0-.7.56-1.26 1.26-1.26h13.86c.7 0 1.26-.56 1.26-1.26 0-12.46 2.1-12.18 2.1-21.98s-14.98-13.02-23.52-13.02-23.52 3.22-23.52 13.02c0 9.8 2.1 9.52 2.1 21.98 0 .7.56 1.26 1.26 1.26h13.86c.7 0 1.26.56 1.26 1.26v25.2c0 .7-.56 1.26-1.26 1.26h-13.86c-.7 0-1.26.56-1.26 1.26 0 12.46-2.1 12.18-2.1 21.98s14.98 13.02 23.52 13.02 23.52-3.22 23.52-13.02c0-9.8-2.1-9.52-2.1-21.98 0-.7-.56-1.26-1.26-1.26h-13.86c-.7 0-1.26-.56-1.26-1.26V57.9c0-.7.56-1.26 1.26-1.26h40.32c.7 0 1.26.56 1.26 1.26v7.56c0 .7-.56 1.26-1.26 1.26h-13.86c-.7 0-1.26.56-1.26 1.26 0 12.46-2.1 12.18-2.1 21.98s14.98 13.02 23.52 13.02 23.52-3.22 23.52-13.02c0-9.8-2.1-9.52-2.1-21.98 0-.7-.56-1.26-1.26-1.26zM297.953 67.98c0-.7-.56-1.26-1.26-1.26h-11.62c-.7 0-1.4 0-2.1-1.12l-16.24-25.2s-.28-.42-.28-.84c0-.28.28-.56.84-.56h2.94c.7 0 1.26-.56 1.26-1.26 0-12.46 2.1-12.18 2.1-21.98s-14.98-13.02-23.52-13.02-23.52 3.22-23.52 13.02c0 9.8 2.1 9.52 2.1 21.98 0 .7.56 1.26 1.26 1.26h4.62c.56 0 .84.28.84.56 0 .42-.28.84-.28.84l-15.68 24.64c-.7 1.12-1.12 1.68-1.82 1.68h-14.14c-.7 0-1.26.56-1.26 1.26 0 12.46-2.1 12.18-2.1 21.98s14.98 13.02 23.52 13.02 23.52-3.22 23.52-13.02c0-9.8-2.1-9.52-2.1-21.98 0-.7-.56-1.26-1.26-1.26h-13.3c-.56 0-.98 0-.98-.28 0-.42.28-.84.28-.84l3.5-5.46c.7-1.12 1.12-1.68 1.82-1.68h27.16c.7 0 1.12.56 1.82 1.68l3.36 5.18s.28.42.28.84c0 .28-.28.56-.84.56h-10.5c-.7 0-1.26.56-1.26 1.26 0 12.46-2.1 12.18-2.1 21.98s14.98 13.02 23.52 13.02 23.52-3.22 23.52-13.02c0-9.8-2.1-9.52-2.1-21.98zm-41.16-17.08h-16.24c-.56 0-.84-.28-.84-.56 0-.42.28-.84.28-.84l5.32-8.82c.7-1.12 1.12-1.68 1.82-1.68h2.94c.7 0 1.12.56 1.82 1.68l5.46 8.82s.28.42.28.84c0 .28-.28.56-.84.56zM334.417.64c-18.2 0-43.68 2.52-43.68 14.98 0 9.8 2.1 9.66 2.1 22.12v11.34c0 .7.56 1.26 1.26 1.26h7.56c.7 0 1.26-.56 1.26-1.26v-1.26c0-4.9 3.92-8.82 8.82-8.82h16.38c.7 0 1.26.56 1.26 1.26v25.2c0 .7-.56 1.26-1.26 1.26h-13.86c-.7 0-1.26.56-1.26 1.26 0 12.46-2.1 12.18-2.1 21.98s14.98 13.02 23.52 13.02 23.52-3.22 23.52-13.02c0-9.8-2.1-9.52-2.1-21.98 0-.7-.56-1.26-1.26-1.26h-13.86c-.7 0-1.26-.56-1.26-1.26v-25.2c0-.7.56-1.26 1.26-1.26h16.38c4.9 0 8.82 3.92 8.82 8.82v1.26c0 .7.56 1.26 1.26 1.26h7.56c.7 0 1.26-.56 1.26-1.26V37.74c0-12.46 2.1-12.32 2.1-22.12 0-12.46-25.48-14.98-43.68-14.98z"/></svg>