<svg xmlns="http://www.w3.org/2000/svg" fill="none" viewBox="0 0 364 99"><path fill="#FF1C31" d="M82.205.72c-8.96 0-16.52 5.88-19.18 13.86-.7 1.96-.7 2.38-.98 2.38s-.28-.42-.98-2.38C58.405 6.6 50.845.72 41.885.72c-8.96 0-16.52 5.88-19.18 13.86-.7 1.96-.7 2.38-.98 2.38s-.28-.42-.98-2.38C18.085 6.6 10.525.72 1.565.72c-.7 0-1.26.56-1.26 1.26v44.1c0 .7.56 1.26 1.26 1.26h7.56c.7 0 1.26-.56 1.26-1.26v-1.26c0-4.9 3.92-8.82 8.82-8.82h16.38c.7 0 1.26.56 1.26 1.26v25.2c0 .7-.56 1.26-1.26 1.26h-13.86c-.7 0-1.26.56-1.26 1.26v32.76c0 .7.56 1.26 1.26 1.26 8.96 0 16.52-5.74 19.18-13.86.7-1.96.7-2.38.98-2.38s.28.42.98 2.38A20.097 20.097 0 0 0 62.045 99c.7 0 1.26-.56 1.26-1.26V64.98c0-.7-.56-1.26-1.26-1.26h-13.86c-.7 0-1.26-.56-1.26-1.26v-25.2c0-.7.56-1.26 1.26-1.26h16.38c4.9 0 8.82 3.92 8.82 8.82v1.26c0 .7.56 1.26 1.26 1.26h7.56c.7 0 1.26-.56 1.26-1.26V1.98c0-.7-.56-1.26-1.26-1.26zM170.782 36h13.86c.7 0 1.26-.56 1.26-1.26V1.98c0-.7-.56-1.26-1.26-1.26-8.96 0-16.52 5.88-19.18 13.86-.7 1.96-.7 2.38-.98 2.38s-.28-.42-.98-2.38C160.842 6.6 153.282.72 144.322.72c-.7 0-1.26.56-1.26 1.26v32.76c0 .7.56 1.26 1.26 1.26h13.86c.7 0 1.26.56 1.26 1.26v7.56c0 .7-.56 1.26-1.26 1.26h-40.32c-.7 0-1.26-.56-1.26-1.26v-7.56c0-.7.56-1.26 1.26-1.26h13.86c.7 0 1.26-.56 1.26-1.26V1.98c0-.7-.56-1.26-1.26-1.26-8.96 0-16.52 5.88-19.18 13.86-.7 1.96-.7 2.38-.98 2.38s-.28-.42-.98-2.38C107.922 6.6 100.362.72 91.402.72c-.7 0-1.26.56-1.26 1.26v32.76c0 .7.56 1.26 1.26 1.26h13.86c.7 0 1.26.56 1.26 1.26v25.2c0 .7-.56 1.26-1.26 1.26h-13.86c-.7 0-1.26.56-1.26 1.26v32.76c0 .7.56 1.26 1.26 1.26 8.96 0 16.52-5.74 19.18-13.86.7-1.96.7-2.38.98-2.38s.28.42.98 2.38A20.097 20.097 0 0 0 131.722 99c.7 0 1.26-.56 1.26-1.26V64.98c0-.7-.56-1.26-1.26-1.26h-13.86c-.7 0-1.26-.56-1.26-1.26V54.9c0-.7.56-1.26 1.26-1.26h40.32c.7 0 1.26.56 1.26 1.26v7.56c0 .7-.56 1.26-1.26 1.26h-13.86c-.7 0-1.26.56-1.26 1.26v32.76c0 .7.56 1.26 1.26 1.26 8.96 0 16.52-5.74 19.18-13.86.7-1.96.7-2.38.98-2.38s.28.42.98 2.38A20.097 20.097 0 0 0 184.642 99c.7 0 1.26-.56 1.26-1.26V64.98c0-.7-.56-1.26-1.26-1.26h-13.86c-.7 0-1.26-.56-1.26-1.26v-25.2c0-.7.56-1.26 1.26-1.26zM287.168 63.72l-12.18-.56c-.7 0-1.4 0-2.1-1.12l-15.68-24.64s-.28-.42-.28-.84c0-.28.28-.56.84-.56h2.94c.7 0 1.26-.56 1.26-1.26V1.98c0-.7-.56-1.26-1.26-1.26-8.96 0-16.52 5.88-19.18 13.86-.7 1.96-.7 2.38-.98 2.38s-.28-.42-.98-2.38C236.908 6.6 229.348.72 220.388.72c-.7 0-1.26.56-1.26 1.26v32.76c0 .7.56 1.26 1.26 1.26h4.62c.56 0 .84.28.84.56 0 .42-.28.84-.28.84l-15.68 24.64c-.7 1.12-1.12 1.68-1.82 1.68h-14.14c-.7 0-1.26.56-1.26 1.26v32.76c0 .7.56 1.26 1.26 1.26 8.96 0 16.52-5.74 19.18-13.86.7-1.96.7-2.38.98-2.38s.28.42.98 2.38A20.097 20.097 0 0 0 234.248 99c.7 0 1.26-.56 1.26-1.26V64.98c0-.7-.56-1.26-1.26-1.26h-13.3c-.56 0-.98 0-.98-.28 0-.42.28-.84.28-.84l3.5-5.46c.7-1.12 1.12-1.68 1.82-1.68h27.16c.7 0 1.12.56 1.82 1.68l3.36 5.18s.28.42.28.84c0 .28-.28.56-.84.56h-10.5c-.7 0-1.26.56-1.26 1.26v32.76c0 .7.56 1.26 1.26 1.26 8.96 0 16.52-5.74 19.18-13.86.7-1.96.7-2.38.98-2.38s.28.42.98 2.38A20.097 20.097 0 0 0 287.168 99c.7 0 1.26-.56 1.26-1.26V64.98c0-.7-.56-1.26-1.26-1.26zm-51.38-26.04c.7-1.12 1.12-1.68 1.82-1.68h2.94c.7 0 1.12.56 1.82 1.68l5.46 8.82s.28.42.28.84c0 .28-.28.56-.84.56h-16.24c-.56 0-.84-.28-.84-.56 0-.42.28-.84.28-.84l5.32-8.82z"/><path fill="#FF1C31" d="M362.478.72c-8.96 0-16.52 5.88-19.18 13.86-.7 1.96-.7 2.38-.98 2.38s-.28-.42-.98-2.38C338.678 6.6 331.118.72 322.158.72c-8.96 0-16.52 5.88-19.18 13.86-.7 1.96-.7 2.38-.98 2.38s-.28-.42-.98-2.38C298.358 6.6 290.798.72 281.838.72c-.7 0-1.26.56-1.26 1.26v44.1c0 .7.56 1.26 1.26 1.26h7.56c.7 0 1.26-.56 1.26-1.26v-1.26c0-4.9 3.92-8.82 8.82-8.82h16.38c.7 0 1.26.56 1.26 1.26v25.2c0 .7-.56 1.26-1.26 1.26h-13.86c-.7 0-1.26.56-1.26 1.26v32.76c0 .7.56 1.26 1.26 1.26 8.96 0 16.52-5.74 19.18-13.86.7-1.96.7-2.38.98-2.38s.28.42.98 2.38A20.097 20.097 0 0 0 342.318 99c.7 0 1.26-.56 1.26-1.26V64.98c0-.7-.56-1.26-1.26-1.26h-13.86c-.7 0-1.26-.56-1.26-1.26v-25.2c0-.7.56-1.26 1.26-1.26h16.38c4.9 0 8.82 3.92 8.82 8.82v1.26c0 .7.56 1.26 1.26 1.26h7.56c.7 0 1.26-.56 1.26-1.26V1.98c0-.7-.56-1.26-1.26-1.26z"/></svg>