<svg xmlns="http://www.w3.org/2000/svg" fill="none" viewBox="0 0 242 103"><path fill="#FF1C31" d="M146.023.74c-8.12 0-10.921 6.86-15.821 6.86s-3.359-4.06-6.159-4.06-1.26 4.06-6.16 4.06-7.42-6.86-15.82-6.86c-.28 0-1.26 0-1.26 1.26s2.52 21.28 2.52 33.74c0 .7.56 1.26 1.26 1.26h15.4c.56 0 .84.28.84.56 0 .42-.42 1.26-.42 1.26l-10.78 24.08c-.7 1.4-1.26 1.82-1.96 1.82h-12.46c-.7 0-1.26-.42-2.1-1.96l-10.64-23.94s-.42-.84-.42-1.26c0-.28.28-.56.84-.56h9.8c.7 0 1.26-.56 1.26-1.26 0-12.46 2.52-32.48 2.52-33.74 0-1.26-1.12-1.26-1.26-1.26-8.12 0-10.22 6.86-15.12 6.86-4.9 0-3.36-4.06-6.16-4.06-2.8 0-1.26 4.06-6.16 4.06S61.043.74 52.643.74c-.28 0-1.26 0-1.26 1.26s2.52 21.28 2.52 33.74c0 .7.56 1.26 1.26 1.26h11.9c.56 0 .84.28.84.56 0 .42-.42 1.26-.42 1.26L56.703 62.9c-.7 1.4-1.26 1.82-1.96 1.82h-12.46c-.7 0-1.26-.42-2.1-1.96l-10.64-23.94s-.42-.84-.42-1.26c0-.28.28-.56.84-.56h13.3c.7 0 1.26-.56 1.26-1.26 0-12.46 2.52-32.48 2.52-33.74 0-1.26-1.12-1.26-1.26-1.26-8.12 0-10.92 6.86-15.82 6.86s-3.36-4.06-6.16-4.06c-2.8 0-1.26 4.06-6.16 4.06S10.222.74 1.822.74C1.542.74.562.74.562 2s2.52 21.28 2.52 33.74c0 .7.56 1.26 1.26 1.26h8.26c.7 0 1.4.56 1.96 1.82l27.02 61.04c.28.56 1.54 2.66 4.48 2.66 2.66 0 4.06-2.1 4.34-2.66l20.58-46.06s.7-1.82 1.54-1.82c.84 0 1.54 1.82 1.54 1.82l20.44 46.06c.28.56 1.54 2.66 4.48 2.66 2.66 0 4.06-2.1 4.34-2.66l27.159-61.04c.56-1.26 1.261-1.82 1.961-1.82h11.06c.7 0 1.26-.56 1.26-1.26 0-12.46 2.52-32.48 2.52-33.74 0-1.26-1.12-1.26-1.26-1.26zM238.84 58.84c0-.7-.56-1.26-1.26-1.26h-7.28c-.7 0-1.26.56-1.26 1.26 0 3.5-2.8 5.88-6.3 5.88H183.4c-.7 0-1.26-.56-1.26-1.26V55.9c0-.7.56-1.26 1.26-1.26h11.76c.7 0 1.26.56 1.26 1.26v1.26c0 .7.56 1.26 1.26 1.26h18.9c.7 0 1.26-.56 1.26-1.26v-12.6c0-.7-.56-1.26-1.26-1.26h-18.9c-.7 0-1.26.56-1.26 1.26v1.26c0 .7-.56 1.26-1.26 1.26H183.4c-.7 0-1.26-.56-1.26-1.26v-7.56c0-.7.56-1.26 1.26-1.26h39.34c3.5 0 6.3 2.38 6.3 5.88 0 .7.56 1.26 1.26 1.26h7.28c.7 0 1.26-.56 1.26-1.26v-7.14c0-12.46 2.52-32.48 2.52-33.74 0-1.26-1.12-1.26-1.26-1.26-8.12 0-11.62 6.86-16.52 6.86s-3.5-4.06-6.16-4.06c-2.8 0-1.26 4.06-6.16 4.06-3.5 0-6.3-3.64-14-3.64-7.56 0-10.64 3.64-14 3.64-4.9 0-3.36-4.06-6.16-4.06-2.8 0-1.26 4.06-6.16 4.06S162.82.74 154.42.74c-.28 0-1.26 0-1.26 1.26s2.52 21.28 2.52 33.74c0 .7.56 1.26 1.26 1.26h13.86c.7 0 1.26.56 1.26 1.26v25.2c0 .7-.56 1.26-1.26 1.26h-13.86c-.7 0-1.26.56-1.26 1.26 0 12.46-2.52 32.48-2.52 33.74 0 1.26.98 1.26 1.26 1.26 8.12 0 11.62-6.86 16.52-6.86s3.36 4.06 6.16 4.06c2.8 0 1.26-4.06 6.16-4.06 3.5 0 6.44 3.64 13.86 3.64 7.7 0 10.64-3.64 14.14-3.64 4.9 0 3.36 4.06 6.16 4.06 2.66 0 1.26-4.06 6.16-4.06s8.12 6.86 16.52 6.86c.14 0 1.26 0 1.26-1.26s-2.52-21.28-2.52-33.74v-7.14z"/></svg>