<svg xmlns="http://www.w3.org/2000/svg" fill="none" viewBox="0 0 244 112"><path fill="#FF1C31" d="M136.543 6.02c-4.2 0-7.84 1.96-10.22 5.04-.98 1.26-1.26 2.8-1.68 2.8-.42 0-.7-1.54-1.68-2.8-2.38-3.08-6.02-5.04-10.22-5.04-7.28 0-12.18 5.88-12.18 13.16 0 5.46 3.36 8.12 3.36 21.56 0 .7.56 1.26 1.26 1.26h15.4c.56 0 .84.28.84.56 0 .42-.42 1.26-.42 1.26l-10.78 24.08c-.7 1.4-1.26 1.82-1.96 1.82h-12.46c-.7 0-1.26-.42-2.1-1.96l-10.64-23.94s-.42-.84-.42-1.26c0-.28.28-.56.84-.56h10.22c.7 0 1.26-.56 1.26-1.26 0-13.44 3.36-16.1 3.36-21.56 0-7.28-4.9-13.16-12.18-13.16-4.2 0-7.56 1.96-9.94 5.04-.98 1.26-1.26 2.8-1.68 2.8-.42 0-.7-1.54-1.68-2.8-2.38-3.08-5.74-5.04-9.94-5.04-7.28 0-12.18 5.88-12.18 13.16 0 5.46 3.36 8.12 3.36 21.56 0 .7.56 1.26 1.26 1.26h12.32c.56 0 .84.28.84.56 0 .42-.42 1.26-.42 1.26L57.303 67.9c-.7 1.4-1.26 1.82-1.96 1.82h-12.46c-.7 0-1.26-.42-2.1-1.96l-10.64-23.94s-.42-.84-.42-1.26c0-.28.28-.56.84-.56h13.3c.7 0 1.26-.56 1.26-1.26 0-13.44 3.36-16.1 3.36-21.56 0-7.28-4.9-13.16-12.18-13.16-4.2 0-7.84 1.96-10.22 5.04-.98 1.26-1.26 2.8-1.68 2.8-.42 0-.7-1.54-1.68-2.8-2.38-3.08-6.02-5.04-10.22-5.04-7.28 0-12.18 5.88-12.18 13.16 0 5.46 3.36 8.12 3.36 21.56 0 .7.56 1.26 1.26 1.26h8.26c.7 0 1.4.56 1.96 1.82l27.02 61.04c.28.56 1.54 2.66 4.48 2.66 2.66 0 4.06-2.1 4.34-2.66l20.58-46.06s.7-1.82 1.54-1.82c.84 0 1.54 1.82 1.54 1.82l20.44 46.06c.28.56 1.54 2.66 4.48 2.66 2.66 0 4.06-2.1 4.34-2.66l27.16-61.04c.56-1.26 1.26-1.82 1.96-1.82h11.06c.7 0 1.26-.56 1.26-1.26 0-13.44 3.36-16.1 3.36-21.56 0-7.28-4.9-13.16-12.18-13.16zM240.261 63.84c0-.7-.56-1.26-1.26-1.26h-7.28c-.7 0-1.26.56-1.26 1.26 0 3.5-2.8 5.88-6.3 5.88h-39.34c-.7 0-1.26-.56-1.26-1.26V60.9c0-.7.56-1.26 1.26-1.26h11.76c.7 0 1.26.56 1.26 1.26v1.26c0 .7.56 1.26 1.26 1.26h18.9c.7 0 1.26-.56 1.26-1.26v-12.6c0-.7-.56-1.26-1.26-1.26h-18.9c-.7 0-1.26.56-1.26 1.26v1.26c0 .7-.56 1.26-1.26 1.26h-11.76c-.7 0-1.26-.56-1.26-1.26v-7.56c0-.7.56-1.26 1.26-1.26h39.34c3.5 0 6.3 2.38 6.3 5.88 0 .7.56 1.26 1.26 1.26h7.28c.7 0 1.26-.56 1.26-1.26v-7.14c0-13.44 3.36-16.1 3.36-21.56 0-7.28-5.6-13.16-12.88-13.16-4.2 0-7.84 1.96-10.22 5.04-.98 1.26-1.26 2.8-1.68 2.8-.42 0-.98-1.54-1.68-2.8-1.96-3.5-7.56-10.92-18.48-10.92-10.92 0-16.52 7.42-18.48 10.92-.7 1.26-1.26 2.8-1.68 2.8-.42 0-.7-1.54-1.68-2.8-2.38-3.08-6.02-5.04-10.22-5.04-7.28 0-12.88 5.88-12.88 13.16 0 5.46 3.36 8.12 3.36 21.56 0 .7.56 1.26 1.26 1.26h13.86c.7 0 1.26.56 1.26 1.26v25.2c0 .7-.56 1.26-1.26 1.26h-13.86c-.7 0-1.26.56-1.26 1.26 0 13.44-3.36 16.1-3.36 21.56 0 7.28 5.6 13.16 12.88 13.16 4.2 0 7.84-1.96 10.22-5.04.98-1.26 1.26-2.8 1.68-2.8.42 0 .98 1.54 1.68 2.8 1.96 3.5 7.56 10.92 18.48 10.92 10.92 0 16.52-7.42 18.48-10.92.7-1.26 1.26-2.8 1.68-2.8.42 0 .7 1.54 1.68 2.8 2.38 3.08 6.02 5.04 10.22 5.04 7.28 0 12.88-5.88 12.88-13.16 0-5.46-3.36-8.12-3.36-21.56v-7.14z"/></svg>