<svg xmlns="http://www.w3.org/2000/svg" fill="none" viewBox="0 0 233 124"><path fill="#FF1C31" d="M142.2 13.98c0-.7-.56-1.26-1.26-1.26h-3.5c-.98 0-1.26-1.4-1.26-1.4-1.68-6.44-7.7-11.2-14.7-11.2-7 0-13.02 4.76-14.7 11.2 0 0-.28 1.4-1.26 1.4h-3.5c-.7 0-1.26.56-1.26 1.26v32.76c0 .7.56 1.26 1.26 1.26h15.4c.56 0 .84.28.84.56 0 .42-.42 1.26-.42 1.26L107.06 73.9c-.7 1.4-1.26 1.82-1.96 1.82H92.64c-.7 0-1.26-.42-2.1-1.96L79.9 49.82s-.42-.84-.42-1.26c0-.28.28-.56.84-.56h9.8c.7 0 1.26-.56 1.26-1.26V13.98c0-.7-.56-1.26-1.26-1.26h-2.8c-.98 0-1.26-1.4-1.26-1.4-1.68-6.44-7.7-11.2-14.7-11.2-7 0-13.02 4.76-14.7 11.2 0 0-.28 1.4-1.26 1.4h-2.8c-.7 0-1.26.56-1.26 1.26v32.76c0 .7.56 1.26 1.26 1.26h11.9c.56 0 .84.28.84.56 0 .42-.42 1.26-.42 1.26L54.14 73.9c-.7 1.4-1.26 1.82-1.96 1.82H39.72c-.7 0-1.26-.42-2.1-1.96L26.98 49.82s-.42-.84-.42-1.26c0-.28.28-.56.84-.56h13.3c.7 0 1.26-.56 1.26-1.26V13.98c0-.7-.56-1.26-1.26-1.26h-3.5c-.98 0-1.26-1.4-1.26-1.4-1.68-6.44-7.7-11.2-14.7-11.2-7 0-13.02 4.76-14.7 11.2 0 0-.28 1.4-1.26 1.4h-3.5c-.7 0-1.26.56-1.26 1.26v32.76c0 .7.56 1.26 1.26 1.26h8.26c.7 0 1.4.56 1.96 1.82l27.02 61.04c.28.56 1.54 2.66 4.48 2.66 2.66 0 4.06-2.1 4.34-2.66L68.42 64.8s.7-1.82 1.54-1.82c.84 0 1.54 1.82 1.54 1.82l20.44 46.06c.28.56 1.54 2.66 4.48 2.66 2.66 0 4.06-2.1 4.34-2.66l27.16-61.04c.56-1.26 1.26-1.82 1.96-1.82h11.06c.7 0 1.26-.56 1.26-1.26V13.98zM176.872 48h39.341c3.5 0 6.299 2.38 6.299 5.88 0 .7.561 1.26 1.261 1.26h7.28c.7 0 1.259-.56 1.259-1.26v-39.9c0-.7-.559-1.26-1.259-1.26h-24.36c-.98 0-1.261-1.4-1.261-1.4-1.68-6.44-7.699-11.2-14.7-11.2-7 0-13.019 4.76-14.699 11.2 0 0-.28 1.4-1.26 1.4h-24.361c-.7 0-1.26.56-1.26 1.26v32.76c0 .7.56 1.26 1.26 1.26h13.861c.7 0 1.26.56 1.26 1.26v25.2c0 .7-.56 1.26-1.26 1.26h-13.861c-.7 0-1.26.56-1.26 1.26v32.76c0 .7.56 1.26 1.26 1.26h24.361c.98 0 1.26 1.4 1.26 1.4 1.68 6.44 7.699 11.2 14.699 11.2 7.001 0 13.02-4.76 14.7-11.2 0 0 .281-1.4 1.261-1.4h24.36c.7 0 1.259-.56 1.259-1.26v-39.9c0-.7-.559-1.26-1.259-1.26h-7.28c-.7 0-1.261.56-1.261 1.26 0 3.5-2.799 5.88-6.299 5.88h-39.341c-.7 0-1.259-.56-1.259-1.26V66.9c0-.7.559-1.26 1.259-1.26h11.76c.7 0 1.261.56 1.261 1.26v1.26c0 .7.559 1.26 1.259 1.26h18.901c.7 0 1.259-.56 1.259-1.26v-12.6c0-.7-.559-1.26-1.259-1.26h-18.901c-.7 0-1.259.56-1.259 1.26v1.26c0 .7-.561 1.26-1.261 1.26h-11.76c-.7 0-1.259-.56-1.259-1.26v-7.56c0-.7.559-1.26 1.259-1.26z"/></svg>