<svg xmlns="http://www.w3.org/2000/svg" fill="none" viewBox="0 0 241 110"><path fill="#FF1C31" d="M146.343 9.36c-.7-.42-16.1-4.9-19.88-4.9-.84 0-1.68 5.04-2.52 5.04-.84 0-1.68-5.04-2.52-5.04-3.78 0-19.18 4.48-19.88 4.9-.7.42-.84.7-.84 1.4s2.52 10.08 2.52 28.98c0 .7.56 1.26 1.26 1.26h15.4c.56 0 .84.28.84.56 0 .42-.42 1.26-.42 1.26l-10.78 24.08c-.7 1.4-1.26 1.82-1.96 1.82h-12.46c-.7 0-1.26-.42-2.1-1.96l-10.64-23.94s-.42-.84-.42-1.26c0-.28.28-.56.84-.56h9.8c.7 0 1.26-.56 1.26-1.26 0-18.9 2.52-28.28 2.52-28.98 0-.7-.14-.98-.84-1.4-.7-.42-15.4-4.9-19.18-4.9-.84 0-1.68 5.04-2.52 5.04-.84 0-1.68-5.04-2.52-5.04-3.78 0-18.48 4.48-19.18 4.9-.7.42-.84.7-.84 1.4s2.52 10.08 2.52 28.98c0 .7.56 1.26 1.26 1.26h11.9c.56 0 .84.28.84.56 0 .42-.42 1.26-.42 1.26L56.603 66.9c-.7 1.4-1.26 1.82-1.96 1.82h-12.46c-.7 0-1.26-.42-2.1-1.96l-10.64-23.94s-.42-.84-.42-1.26c0-.28.28-.56.84-.56h13.3c.7 0 1.26-.56 1.26-1.26 0-18.9 2.52-28.28 2.52-28.98 0-.7-.14-.98-.84-1.4-.7-.42-16.1-4.9-19.88-4.9-.84 0-1.68 5.04-2.52 5.04-.84 0-1.68-5.04-2.52-5.04-3.78 0-19.18 4.48-19.88 4.9-.7.42-.84.7-.84 1.4s2.52 10.08 2.52 28.98c0 .7.56 1.26 1.26 1.26h8.26c.7 0 1.4.56 1.96 1.82l27.02 61.04c.28.56 1.54 2.66 4.48 2.66 2.66 0 4.06-2.1 4.34-2.66l20.58-46.06s.7-1.82 1.54-1.82c.84 0 1.54 1.82 1.54 1.82l20.44 46.06c.28.56 1.54 2.66 4.48 2.66 2.66 0 4.06-2.1 4.34-2.66l27.16-61.04c.56-1.26 1.26-1.82 1.96-1.82h11.06c.7 0 1.26-.56 1.26-1.26 0-18.9 2.52-28.28 2.52-28.98 0-.7-.14-.98-.84-1.4zM237.92 62.84c0-.7-.56-1.26-1.26-1.26h-7.28c-.7 0-1.26.56-1.26 1.26 0 3.5-2.8 5.88-6.3 5.88h-39.34c-.7 0-1.26-.56-1.26-1.26V59.9c0-.7.56-1.26 1.26-1.26h11.76c.7 0 1.26.56 1.26 1.26v1.26c0 .7.56 1.26 1.26 1.26h18.9c.7 0 1.26-.56 1.26-1.26v-12.6c0-.7-.56-1.26-1.26-1.26h-18.9c-.7 0-1.26.56-1.26 1.26v1.26c0 .7-.56 1.26-1.26 1.26h-11.76c-.7 0-1.26-.56-1.26-1.26v-7.56c0-.7.56-1.26 1.26-1.26h39.34c3.5 0 6.3 2.38 6.3 5.88 0 .7.56 1.26 1.26 1.26h7.28c.7 0 1.26-.56 1.26-1.26v-7.14c0-18.9 2.52-28.28 2.52-28.98 0-.7-.14-.98-.84-1.4-.7-.42-16.8-4.9-20.58-4.9-.84 0-1.68 5.04-2.52 5.04-.84 0-1.54-5.18-2.52-6.3S203.9.68 196.34.68c-7.56 0-16.66 1.4-17.64 2.52-.98 1.12-1.68 6.3-2.52 6.3-.84 0-1.68-5.04-2.52-5.04-3.78 0-19.88 4.48-20.58 4.9-.7.42-.84.7-.84 1.4s2.52 10.08 2.52 28.98c0 .7.56 1.26 1.26 1.26h13.86c.7 0 1.26.56 1.26 1.26v25.2c0 .7-.56 1.26-1.26 1.26h-13.86c-.7 0-1.26.56-1.26 1.26 0 18.9-2.52 28.28-2.52 28.98 0 .7.14.98.84 1.4.7.42 16.8 4.9 20.58 4.9.84 0 1.68-5.04 2.52-5.04.84 0 1.54 5.18 2.52 6.3s10.08 2.52 17.64 2.52c7.56 0 16.66-1.4 17.64-2.52.98-1.12 1.68-6.3 2.52-6.3.84 0 1.68 5.04 2.52 5.04 3.78 0 19.88-4.48 20.58-4.9.7-.42.84-.7.84-1.4s-2.52-10.08-2.52-28.98v-7.14z"/></svg>