<svg xmlns="http://www.w3.org/2000/svg" fill="none" viewBox="0 0 239 116"><path fill="#FF1C31" d="M144.903 11.52c-2.8 0-5.04.56-7.84 1.96-.28.14-.7.42-.98.42s-.42-.28-.42-.42c0-7-5.32-12.6-12.32-12.6s-12.32 5.6-12.32 12.6c0 .14-.14.42-.42.42-.28 0-.7-.28-.98-.42-2.8-1.4-5.04-1.96-7.84-1.96-.7 0-1.26.56-1.26 1.26 0 1.82 2.1 4.62 2.1 29.96 0 .7.56 1.26 1.26 1.26h15.4c.56 0 .84.28.84.56 0 .42-.42 1.26-.42 1.26l-10.78 24.08c-.7 1.4-1.26 1.82-1.96 1.82h-12.46c-.7 0-1.26-.42-2.1-1.96l-10.64-23.94s-.42-.84-.42-1.26c0-.28.28-.56.84-.56h9.8c.7 0 1.26-.56 1.26-1.26 0-25.34 2.1-28.14 2.1-29.96 0-.7-.56-1.26-1.26-1.26-2.8 0-4.48.56-7.28 1.96-.28.14-.7.42-.98.42s-.42-.28-.42-.42c0-7-5.18-12.6-12.18-12.6s-12.18 5.6-12.18 12.6c0 .14-.14.42-.42.42-.28 0-.7-.28-.98-.42-2.8-1.4-4.48-1.96-7.28-1.96-.7 0-1.26.56-1.26 1.26 0 1.82 2.1 4.62 2.1 29.96 0 .7.56 1.26 1.26 1.26h11.9c.56 0 .84.28.84.56 0 .42-.42 1.26-.42 1.26L56.003 69.9c-.7 1.4-1.26 1.82-1.96 1.82h-12.46c-.7 0-1.26-.42-2.1-1.96l-10.64-23.94s-.42-.84-.42-1.26c0-.28.28-.56.84-.56h13.3c.7 0 1.26-.56 1.26-1.26 0-25.34 2.1-28.14 2.1-29.96 0-.7-.56-1.26-1.26-1.26-2.8 0-5.04.56-7.84 1.96-.28.14-.7.42-.98.42s-.42-.28-.42-.42c0-7-5.32-12.6-12.32-12.6s-12.32 5.6-12.32 12.6c0 .14-.14.42-.42.42-.28 0-.7-.28-.98-.42-2.8-1.4-5.04-1.96-7.84-1.96-.7 0-1.26.56-1.26 1.26 0 1.82 2.1 4.62 2.1 29.96 0 .7.56 1.26 1.26 1.26h8.26c.7 0 1.4.56 1.96 1.82l27.02 61.04c.28.56 1.54 2.66 4.48 2.66 2.66 0 4.06-2.1 4.34-2.66l20.58-46.06s.7-1.82 1.54-1.82c.84 0 1.54 1.82 1.54 1.82l20.44 46.06c.28.56 1.54 2.66 4.48 2.66 2.66 0 4.06-2.1 4.34-2.66l27.16-61.04c.56-1.26 1.26-1.82 1.96-1.82h11.06c.7 0 1.26-.56 1.26-1.26 0-25.34 2.1-28.14 2.1-29.96 0-.7-.56-1.26-1.26-1.26zM236.5 65.84c0-.7-.56-1.26-1.26-1.26h-7.28c-.7 0-1.26.56-1.26 1.26 0 3.5-2.8 5.88-6.3 5.88h-39.34c-.7 0-1.26-.56-1.26-1.26V62.9c0-.7.56-1.26 1.26-1.26h11.76c.7 0 1.26.56 1.26 1.26v1.26c0 .7.56 1.26 1.26 1.26h18.9c.7 0 1.26-.56 1.26-1.26v-12.6c0-.7-.56-1.26-1.26-1.26h-18.9c-.7 0-1.26.56-1.26 1.26v1.26c0 .7-.56 1.26-1.26 1.26h-11.76c-.7 0-1.26-.56-1.26-1.26v-7.56c0-.7.56-1.26 1.26-1.26h39.34c3.5 0 6.3 2.38 6.3 5.88 0 .7.56 1.26 1.26 1.26h7.28c.7 0 1.26-.56 1.26-1.26v-7.14c0-25.34 2.1-28.14 2.1-29.96 0-.7-.56-1.26-1.26-1.26-6.16 0-14.56 1.68-19.88 4.9-.7.42-1.54.98-1.82.98s-.42-.42-.42-.42C213.4 7.46 205 .18 194.92.18s-18.48 7.28-20.3 16.8c0 0-.14.42-.42.42-.28 0-1.12-.56-1.82-.98-5.32-3.22-13.72-4.9-19.88-4.9-.7 0-1.26.56-1.26 1.26 0 1.82 2.1 4.62 2.1 29.96 0 .7.56 1.26 1.26 1.26h13.86c.7 0 1.26.56 1.26 1.26v25.2c0 .7-.56 1.26-1.26 1.26H154.6c-.7 0-1.26.56-1.26 1.26 0 25.34-2.1 28.14-2.1 29.96 0 .7.56 1.26 1.26 1.26 6.16 0 14.56-1.68 19.88-4.9.7-.42 1.54-.98 1.82-.98s.42.42.42.42c1.82 9.52 10.22 16.8 20.3 16.8s18.48-7.28 20.3-16.8c0 0 .14-.42.42-.42.28 0 1.12.56 1.82.98 5.32 3.22 13.72 4.9 19.88 4.9.7 0 1.26-.56 1.26-1.26 0-1.82-2.1-4.62-2.1-29.96v-7.14z"/></svg>