<svg xmlns="http://www.w3.org/2000/svg" fill="none" viewBox="0 0 233 102"><path fill="#FF1C31" d="M102.02.72c-.7 0-1.26.56-1.26 1.26v32.76c0 .7.56 1.26 1.26 1.26h15.4c.56 0 .84.28.84.56 0 .42-.42 1.26-.42 1.26L107.06 61.9c-.7 1.4-1.26 1.82-1.96 1.82H92.64c-.7 0-1.26-.42-2.1-1.96L79.9 37.82s-.42-.84-.42-1.26c0-.28.28-.56.84-.56h9.8c.7 0 1.26-.56 1.26-1.26V1.98c0-.7-.56-1.26-1.26-1.26H52.6c-.7 0-1.26.56-1.26 1.26v32.76c0 .7.56 1.26 1.26 1.26h11.9c.56 0 .84.28.84.56 0 .42-.42 1.26-.42 1.26L54.14 61.9c-.7 1.4-1.26 1.82-1.96 1.82H39.72c-.7 0-1.26-.42-2.1-1.96L26.98 37.82s-.42-.84-.42-1.26c0-.28.28-.56.84-.56h13.3c.7 0 1.26-.56 1.26-1.26V1.98c0-.7-.56-1.26-1.26-1.26H1.78c-.7 0-1.26.56-1.26 1.26v32.76c0 .7.56 1.26 1.26 1.26h8.26c.7 0 1.4.56 1.96 1.82l27.02 61.04c.28.56 1.54 2.66 4.48 2.66 2.66 0 4.06-2.1 4.34-2.66L68.42 52.8s.7-1.82 1.54-1.82c.84 0 1.54 1.82 1.54 1.82l20.44 46.06c.28.56 1.54 2.66 4.48 2.66 2.66 0 4.06-2.1 4.34-2.66l27.16-61.04c.56-1.26 1.26-1.82 1.96-1.82h11.06c.7 0 1.26-.56 1.26-1.26V1.98c0-.7-.56-1.26-1.26-1.26h-38.92zM231.053 99c.7 0 1.259-.56 1.259-1.26v-39.9c0-.7-.559-1.26-1.259-1.26h-7.28c-.7 0-1.261.56-1.261 1.26 0 3.36-2.799 5.88-6.299 5.88h-39.341c-.7 0-1.259-.7-1.259-1.26V54.9c0-.7.559-1.26 1.259-1.26h11.76c.7 0 1.261.56 1.261 1.26v1.26c0 .7.559 1.26 1.259 1.26h18.901c.7 0 1.259-.56 1.259-1.26v-12.6c0-.7-.559-1.26-1.259-1.26h-18.901c-.7 0-1.259.56-1.259 1.26v1.26c0 .7-.561 1.26-1.261 1.26h-11.76c-.7 0-1.259-.56-1.259-1.26v-7.56c0-.7.559-1.26 1.259-1.26h39.341c3.5 0 6.299 2.38 6.299 5.88 0 .7.561 1.26 1.261 1.26h7.28c.7 0 1.259-.56 1.259-1.26V1.98c0-.7-.559-1.26-1.259-1.26h-80.641c-.7 0-1.26.56-1.26 1.26v32.76c0 .7.56 1.26 1.26 1.26h13.861c.7 0 1.26.56 1.26 1.26v25.2c0 .56-.56 1.26-1.26 1.26h-13.861c-.7 0-1.26.7-1.26 1.26v32.76c0 .7.56 1.26 1.26 1.26h80.641z"/></svg>