<svg width="18" height="18" viewBox="0 0 18 18" fill="none" xmlns="http://www.w3.org/2000/svg">
<path d="M15.5015 6.40369H9.31348V9.81079H15.5015C15.7764 9.81079 15.9995 9.5848 15.9995 9.30566V6.90882C15.9995 6.62967 15.7767 6.40369 15.5015 6.40369Z" fill="#9AAAF5"/>
<path d="M2 6.90849V9.30534C2 9.58415 2.22279 9.81047 2.49799 9.81047H8.53625V6.40369H2.49799C2.22279 6.40369 2 6.62967 2 6.90849Z" fill="#9AAAF5"/>
<path d="M2.8623 15.4941C2.8623 15.773 3.0851 15.9993 3.3603 15.9993H8.53632V10.2123H2.8623V15.4941Z" fill="#9AAAF5"/>
<path d="M9.31348 15.9993H14.4895C14.7644 15.9993 14.9875 15.7733 14.9875 15.4941V10.2123H9.31348V15.9993Z" fill="#9AAAF5"/>
<path d="M10.8347 5.8479C11.9859 5.8479 12.7585 5.69235 13.195 5.37245C13.7107 4.99482 14.0502 4.43621 14.1515 3.79966C14.2528 3.16278 14.1036 2.52428 13.7313 2.00154C13.359 1.4788 12.8083 1.13411 12.1807 1.03139C11.5529 0.928664 10.9234 1.07997 10.408 1.4576C9.96534 1.78174 9.57216 2.49069 9.20598 3.62552C9.12625 3.87271 9.05713 4.11076 8.9999 4.32207C8.94268 4.11076 8.87356 3.87238 8.79383 3.62552C8.42765 2.49102 8.03447 1.78174 7.59177 1.4576C6.52796 0.677892 5.03688 0.921816 4.26851 2.00121C3.89623 2.52428 3.74706 3.16278 3.84832 3.79966C3.94959 4.43654 4.28941 4.99482 4.80476 5.37245C5.24167 5.69235 6.01389 5.8479 7.16515 5.8479C7.18058 5.8479 7.19602 5.8479 7.21145 5.8479C8.02032 5.84497 8.71442 5.76605 8.74368 5.76279L8.9999 5.73344L9.25613 5.76279C9.28539 5.76605 9.97949 5.84497 10.7884 5.8479C10.8041 5.8479 10.8192 5.8479 10.8347 5.8479ZM5.41688 4.51317C5.12786 4.30153 4.93722 3.98815 4.88031 3.63074C4.82341 3.27366 4.90732 2.91527 5.11597 2.62211C5.3767 2.2559 5.78563 2.06089 6.20036 2.06089C6.47105 2.06089 6.74432 2.14404 6.9803 2.31688C7.06967 2.38242 7.39245 2.6932 7.79817 3.94641C7.89365 4.2412 7.97306 4.52621 8.03414 4.76101C7.03527 4.82362 5.79271 4.7884 5.41688 4.51317ZM11.0198 2.31688C11.3092 2.10491 11.6622 2.02013 12.0142 2.07784C12.3662 2.13556 12.6752 2.32862 12.8842 2.62211C13.0931 2.91527 13.1767 3.27366 13.1198 3.63074C13.0629 3.98782 12.8723 4.3012 12.5832 4.51317C12.4939 4.57872 12.1026 4.79068 10.8009 4.78807C10.4952 4.78709 10.2032 4.77438 9.96438 4.75905C10.2203 3.77749 10.644 2.59211 11.0198 2.31688Z" fill="#9AAAF5"/>
</svg>
